<?xml version="1.0" encoding="utf-8"?>
<COLLADA xmlns="http://www.collada.org/2005/11/COLLADASchema" version="1.4.1">
  <asset>
    <created>2021-11-24T04:35:02Z</created>
    <modified>2021-11-24T04:35:02Z</modified>
  </asset>
  <library_images>
    <image id="image-AmaSpidWngTex">
      <init_from>AmaSpidWngTex.png</init_from>
    </image>
    <image id="image-AmaSpidTex">
      <init_from>AmaSpidTex.png</init_from>
    </image>
  </library_images>
  <library_materials>
    <material id="material0" name="spd_Body">
      <instance_effect url="#effect0"/>
    </material>
    <material id="material1" name="spd_mesh3_Body">
      <instance_effect url="#effect1"/>
    </material>
    <material id="material2" name="spd_mesh3_Wings">
      <instance_effect url="#effect2"/>
    </material>
  </library_materials>
  <library_effects>
    <effect id="effect0" name="spd_Body">
      <profile_COMMON>
        <newparam sid="Image-surface">
          <surface type="2D">
            <init_from>image-AmaSpidTex</init_from>
            <format>A8R8G8B8</format>
          </surface>
        </newparam>
        <newparam sid="Image-sampler">
          <sampler2D>
            <source>Image-surface</source>
            <wrap_s>WRAP</wrap_s>
            <wrap_t>WRAP</wrap_t>
            <minfilter>NEAREST</minfilter>
            <magfilter>NEAREST</magfilter>
            <mipfilter>NEAREST</mipfilter>
          </sampler2D>
        </newparam>
        <technique sid="common">
          <phong>
            <emission>
              <color>0 0 0 1</color>
            </emission>
            <ambient>
              <color>0 0 0 1</color>
            </ambient>
            <diffuse>
              <texture texture="Image-sampler" texcoord="tc"/>
            </diffuse>
            <specular>
              <color>0 0 0 1</color>
            </specular>
          </phong>
        </technique>
      </profile_COMMON>
    </effect>
    <effect id="effect1" name="spd_mesh3_Body">
      <profile_COMMON>
        <newparam sid="Image-surface">
          <surface type="2D">
            <init_from>image-AmaSpidTex</init_from>
            <format>A8R8G8B8</format>
          </surface>
        </newparam>
        <newparam sid="Image-sampler">
          <sampler2D>
            <source>Image-surface</source>
            <wrap_s>WRAP</wrap_s>
            <wrap_t>WRAP</wrap_t>
            <minfilter>NEAREST</minfilter>
            <magfilter>NEAREST</magfilter>
            <mipfilter>NEAREST</mipfilter>
          </sampler2D>
        </newparam>
        <technique sid="common">
          <phong>
            <emission>
              <color>0 0 0 1</color>
            </emission>
            <ambient>
              <color>0 0 0 1</color>
            </ambient>
            <diffuse>
              <texture texture="Image-sampler" texcoord="tc"/>
            </diffuse>
            <specular>
              <color>0 0 0 1</color>
            </specular>
          </phong>
        </technique>
      </profile_COMMON>
    </effect>
    <effect id="effect2" name="spd_mesh3_Wings">
      <profile_COMMON>
        <newparam sid="Image-surface">
          <surface type="2D">
            <init_from>image-AmaSpidWngTex</init_from>
            <format>A8R8G8B8</format>
          </surface>
        </newparam>
        <newparam sid="Image-sampler">
          <sampler2D>
            <source>Image-surface</source>
            <wrap_s>WRAP</wrap_s>
            <wrap_t>WRAP</wrap_t>
            <minfilter>NEAREST</minfilter>
            <magfilter>NEAREST</magfilter>
            <mipfilter>NEAREST</mipfilter>
          </sampler2D>
        </newparam>
        <technique sid="common">
          <phong>
            <emission>
              <color>0 0 0 1</color>
            </emission>
            <ambient>
              <color>0 0 0 1</color>
            </ambient>
            <diffuse>
              <texture texture="Image-sampler" texcoord="tc"/>
            </diffuse>
            <specular>
              <color>0 0 0 1</color>
            </specular>
            <transparent>
              <texture texture="Image-sampler" texcoord="tc"/>
            </transparent>
          </phong>
        </technique>
      </profile_COMMON>
    </effect>
  </library_effects>
  <library_geometries>
    <geometry id="geometry" name="spa">
      <mesh>
        <source id="positions">
          <float_array id="positions-array" count="2436">-1.103358 6.9973693 -0.37184718 -2.4107769 6.8125906 -0.4020692 -1.4492903 7.2793274 -0.6927845 -2.4805317 6.9865375 -0.63144624 -1.703256 7.5485983 -0.34817064 -2.4794216 7.233383 -0.37416348 -1.4119196 7.293314 -0.041524533 -2.4447994 6.9610868 -0.18017313 -1.103358 6.9973693 -0.37184718 -2.4107769 6.8125906 -0.4020692 -3.817796 6.5693517 -0.087108724 -4.0015597 6.2377467 0.09542429 -3.8187988 6.481397 -0.29212072 -3.9732988 6.3794255 -0.39872998 -3.8940263 6.5779014 -0.4842406 -4.021369 6.4783235 -0.54245347 -4.0998135 6.638411 -0.24984859 -4.533934 6.4361744 -0.38751444 -4.5727053 6.427455 -0.046520587 -4.80253 6.2577276 -0.39174333 -4.836943 6.267993 -0.073791414 -5.062713 6.0565042 -0.36820763 -5.100967 6.0595655 -0.10284814 -3.8187988 6.481397 -0.29212072 -2.8576727 6.635258 -0.37904352 -3.817796 6.5693517 -0.087108724 -2.8899324 6.87927 -0.07365133 -3.9245276 6.708712 -0.2616569 -2.9252317 7.2727866 -0.41069558 -2.9020007 6.861686 -0.7286886 -2.6218994 6.9399776 -0.6677782 -2.5269682 6.7489905 -0.40951225 -2.4805317 6.9865375 -0.63144624 -2.4107769 6.8125906 -0.4020692 -4.0015597 6.2377467 0.09542429 -4.224271 6.370925 0.11290059 -3.9732988 6.3794255 -0.39872998 -4.486431 6.2462597 -0.02443464 -4.45556 6.242902 -0.39219177 -4.574054 6.2371173 -0.052922025 -4.52133 6.2283583 -0.3925247 -4.68243 6.165289 -0.39046282 -4.533934 6.4361744 -0.38751444 -4.80253 6.2577276 -0.39174333 -4.934617 6.095161 -0.45461488 -4.7519717 6.274576 -0.44854698 -4.9107056 6.0848603 -0.5725294 -4.6881733 6.205252 -0.5660328 -4.844887 6.041386 -0.5059861 -4.6372447 6.1801367 -0.4885866 -4.934617 6.095161 -0.45461488 -4.7519717 6.274576 -0.44854698 -4.80253 6.2577276 -0.39174333 -4.68243 6.165289 -0.39046282 -5.062713 6.0565042 -0.36820763 -4.9646597 6.011218 -0.22249727 -5.100967 6.0595655 -0.10284814 -4.7225075 6.171712 -0.060003437 -4.836943 6.267993 -0.073791414 -4.5727053 6.427455 -0.046520587 -2.8576727 6.635258 -0.37904352 -2.5269682 6.7489905 -0.40951225 -2.8899324 6.87927 -0.07365133 -2.576533 6.942589 -0.2311926 -2.63299 7.2560987 -0.39122453 -2.4447994 6.9610868 -0.18017313 -2.4794216 7.233383 -0.37416348 -1.3214464 7.8554287 -0.5146821 -1.703256 7.5485983 -0.34817064 -1.2630672 7.6979175 0.00676642 -1.4119196 7.293314 -0.041524533 -1.1395319 7.1776643 0.084281154 -1.103358 6.9973693 -0.37184718 -4.4378943 6.0466065 0.31850952 -4.348268 5.936031 0.28897157 -4.3194385 6.022984 0.41110894 -4.0015597 6.2377467 0.09542429 -4.0055084 6.344622 0.27347904 -3.817796 6.5693517 -0.087108724 -4.0055084 6.344622 0.27347904 -4.0998135 6.638411 -0.24984859 -4.224271 6.370925 0.11290059 -4.5727053 6.427455 -0.046520587 -4.5101347 6.2859335 0.11513065 -4.7443275 6.250237 0.13292964 -4.9646597 6.011218 -0.22249727 -4.68243 6.165289 -0.39046282 -4.7225075 6.171712 -0.060003437 -4.574054 6.2371173 -0.052922025 -4.5727053 6.427455 -0.046520587 -4.8074365 6.2910028 -0.013641187 -4.8074365 6.2910028 -0.013641187 -4.6883707 6.1951537 0.02810526 -5.0497956 6.087085 0.033889897 -4.9696636 6.0209894 0.073483795 -5.024105 6.092133 0.15458618 -4.7443275 6.250237 0.13292964 -3.9245276 6.708712 -0.2616569 -2.9020007 6.861686 -0.7286886 -3.8940263 6.5779014 -0.4842406 -2.8576727 6.635258 -0.37904352 -3.8187988 6.481397 -0.29212072 -3.8940263 6.5779014 -0.4842406 -4.0998135 6.638411 -0.24984859 -3.9245276 6.708712 -0.2616569 -4.0055084 6.344622 0.27347904 -3.817796 6.5693517 -0.087108724 -5.0497956 6.087085 0.033889897 -5.024105 6.092133 0.15458618 -4.8074365 6.2910028 -0.013641187 -4.7443275 6.250237 0.13292964 -4.5727053 6.427455 -0.046520587 -4.533934 6.4361744 -0.38751444 -4.7519717 6.274576 -0.44854698 -4.52133 6.2283583 -0.3925247 -4.6372447 6.1801367 -0.4885866 -4.506843 6.3175964 -0.5484353 -2.8899324 6.87927 -0.07365133 -2.63299 7.2560987 -0.39122453 -2.9252317 7.2727866 -0.41069558 -2.6218994 6.9399776 -0.6677782 -2.4794216 7.233383 -0.37416348 -2.4805317 6.9865375 -0.63144624 -2.63299 7.2560987 -0.39122453 -2.6218994 6.9399776 -0.6677782 -2.5269682 6.7489905 -0.40951225 -2.4107769 6.8125906 -0.4020692 -2.576533 6.942589 -0.2311926 -2.4447994 6.9610868 -0.18017313 -4.3194385 6.022984 0.41110894 -4.0055084 6.344622 0.27347904 -4.4378943 6.0466065 0.31850952 -4.224271 6.370925 0.11290059 -4.021369 6.4783235 -0.54245347 -4.506843 6.3175964 -0.5484353 -4.533934 6.4361744 -0.38751444 -4.7519717 6.274576 -0.44854698 -4.224271 6.370925 0.11290059 -4.5101347 6.2859335 0.11513065 -4.486431 6.2462597 -0.02443464 -4.574054 6.2371173 -0.052922025 -4.7519717 6.274576 -0.44854698 -4.506843 6.3175964 -0.5484353 -4.6881733 6.205252 -0.5660328 -4.6372447 6.1801367 -0.4885866 -4.9696636 6.0209894 0.073483795 -4.6883707 6.1951537 0.02810526 -4.7443275 6.250237 0.13292964 -4.5101347 6.2859335 0.11513065 -4.5101347 6.2859335 0.11513065 -4.6883707 6.1951537 0.02810526 -4.574054 6.2371173 -0.052922025 -4.8074365 6.2910028 -0.013641187 -1.1518956 7.2665 -0.7774249 -1.4492903 7.2793274 -0.6927845 -1.703256 7.5485983 -0.34817064 -1.3214464 7.8554287 -0.5146821 -4.021369 6.4783235 -0.54245347 -3.9732988 6.3794255 -0.39872998 -4.45556 6.242902 -0.39219177 -4.506843 6.3175964 -0.5484353 -4.348268 5.936031 0.28897157 -4.4378943 6.0466065 0.31850952 -4.224271 6.370925 0.11290059 -4.0015597 6.2377467 0.09542429 -2.5269682 6.7489905 -0.40951225 -2.8576727 6.635258 -0.37904352 -2.9020007 6.861686 -0.7286886 -1.103358 6.9973693 -0.37184718 -1.4492903 7.2793274 -0.6927845 -1.1518956 7.2665 -0.7774249 -4.9107056 6.0848603 -0.5725294 -4.844887 6.041386 -0.5059861 -4.934617 6.095161 -0.45461488 -4.506843 6.3175964 -0.5484353 -4.45556 6.242902 -0.39219177 -4.52133 6.2283583 -0.3925247 -0.2434082 4.5012207 0.06713867 -0.5991211 6.45966 -0.204554 -2.5074093 5.012101 -0.19447939 -1.0716932 7.142362 -0.40252605 -2.4922488 6.923502 -0.4074016 0.2434082 4.5012207 0.06713867 2.5074093 5.012101 -0.19447939 0.5991211 6.45966 -0.204554 1.0716932 7.142362 -0.40252605 4.1336703 6.485139 -0.27587697 2.4922488 6.923502 -0.4074016 2.5074093 5.012101 -0.19447939 1.0716932 7.142362 -0.40252605 -2.4922488 6.923502 -0.4074016 -4.1336703 6.485139 -0.27587697 -2.5074093 5.012101 -0.19447939 2.4107769 6.8125906 -0.4020692 1.103358 6.9973693 -0.37184718 2.4805317 6.9865375 -0.63144624 1.4492903 7.2793274 -0.6927845 2.4794216 7.233383 -0.37416348 1.703256 7.5485983 -0.34817064 2.4447994 6.9610868 -0.18017313 1.4119196 7.293314 -0.041524533 2.4107769 6.8125906 -0.4020692 1.103358 6.9973693 -0.37184718 0.7450514 2.879845 -0.16288279 0.82197917 2.1391544 -0.50800335 1.0398096 2.8099859 0.1115884 1.2254258 2.1274793 -0.045506652 1.2455246 2.9726324 -0.1251144 1.5885212 2.245522 -0.4655528 1.0190727 2.9695067 -0.5396469 1.1888897 2.322168 -0.95339805 0.7450514 2.879845 -0.16288279 0.82197917 2.1391544 -0.50800335 -0.82197917 2.1391544 -0.50800335 -0.7450514 2.879845 -0.16288279 -1.2254258 2.1274793 -0.045506652 -1.0398096 2.8099859 0.1115884 -1.5885212 2.245522 -0.4655528 -1.2455246 2.9726324 -0.1251144 -1.1888897 2.322168 -0.95339805 -1.0190727 2.9695067 -0.5396469 -0.82197917 2.1391544 -0.50800335 -0.7450514 2.879845 -0.16288279 0.6762214 3.0340662 -0.14097929 0.14350086 4.1719246 0.02267927 0.9525527 3.1321986 -0.46307003 0.5737938 4.6935525 -0.5397578 1.2301795 3.123601 -0.113764584 0.8886281 4.9906816 0.032678187 0.96429604 3.05098 0.24181873 0.5209117 4.708597 0.57589006 0.6762214 3.0340662 -0.14097929 0.14350086 4.1719246 0.02267927 -0.14350086 4.1719246 0.02267927 -0.6762214 3.0340662 -0.14097929 -0.5737938 4.6935525 -0.5397578 -0.9525527 3.1321986 -0.46307003 -0.8886281 4.9906816 0.032678187 -1.2301795 3.123601 -0.113764584 -0.5209117 4.708597 0.57589006 -0.96429604 3.05098 0.24181873 -0.14350086 4.1719246 0.02267927 -0.6762214 3.0340662 -0.14097929 -0.3413086 9.942441 -0.425884 -0.2553711 9.886963 0.074792095 0 10.007641 -0.42941263 0 9.951938 0.06198461 0.3413086 9.942441 -0.425884 0.2553711 9.886963 0.074792095 0.5241699 9.724279 -0.4871301 0.43554688 9.626937 0.18681979 0.57128906 9.2799835 -0.53126055 0.4506836 9.173834 0.26963902 1.2254258 2.1274793 -0.045506652 1.285964 0.8328874 -0.29682532 1.5885212 2.245522 -0.4655528 1.494812 0.74341637 -0.59515285 1.1888897 2.322168 -0.95339805 1.2993064 0.8126437 -0.80418026 0.82197917 2.1391544 -0.50800335 1.1294261 0.9038652 -0.6121033 -1.285964 0.8328874 -0.29682532 -1.2254258 2.1274793 -0.045506652 -1.494812 0.74341637 -0.59515285 -1.5885212 2.245522 -0.4655528 -1.2993064 0.8126437 -0.80418026 -1.1888897 2.322168 -0.95339805 -1.1294261 0.9038652 -0.6121033 -0.82197917 2.1391544 -0.50800335 1.6402972 0.016550466 0.7758571 1.2887944 0.016482724 0.94207346 1.8877155 0.016322143 0.19817244 1.0426191 0.016377157 0.31566274 1.7021347 0.016297663 -0.63684976 1.1812866 0.016395496 -0.21951883 -0.10107422 4.316162 0.057861328 -0.49047852 4.937256 -0.5991211 0 4.3146973 0.07324219 0 4.98291 -0.64868164 0.10107422 4.316162 0.057861328 0.49047852 4.937256 -0.5991211 -1.7021347 0.016297663 -0.63684976 -1.1812866 0.016395496 -0.21951883 -1.8877155 0.016322143 0.19817244 -1.0426191 0.016377157 0.31566274 -1.6402972 0.016550466 0.7758571 -1.2887944 0.016482724 0.94207346 -0.2553711 9.886963 0.074792095 -0.3413086 9.942441 -0.425884 -0.43554688 9.626937 0.18681979 -0.5241699 9.724279 -0.4871301 -0.4506836 9.173834 0.26963902 -0.57128906 9.2799835 -0.53126055 -0.43554688 9.626937 0.18681979 -0.4506836 9.173834 0.26963902 0 9.654919 0.47206634 0 9.134856 0.5830716 0.43554688 9.626937 0.18681979 0.4506836 9.173834 0.26963902 0.47875977 8.7497835 -0.2400796 0 8.814496 -0.6005839 0.57128906 9.2799835 -0.53126055 0 9.295295 -0.8530435 0.5241699 9.724279 -0.4871301 0 9.747596 -0.7832589 0 8.814496 -0.6005839 -0.47875977 8.7497835 -0.2400796 0 9.295295 -0.8530435 -0.57128906 9.2799835 -0.53126055 0 9.747596 -0.7832589 -0.5241699 9.724279 -0.4871301 4.021369 6.4783235 -0.54245347 4.533934 6.4361744 -0.38751444 4.506843 6.3175964 -0.5484353 4.7519717 6.274576 -0.44854698 4.6881733 6.205252 -0.5660328 4.9107056 6.0848603 -0.5725294 4.844887 6.041386 -0.5059861 4.934617 6.095161 -0.45461488 4.6372447 6.1801367 -0.4885866 4.7519717 6.274576 -0.44854698 4.52133 6.2283583 -0.3925247 4.533934 6.4361744 -0.38751444 4.68243 6.165289 -0.39046282 4.80253 6.2577276 -0.39174333 5.062713 6.0565042 -0.36820763 5.100967 6.0595655 -0.10284814 5.062713 6.0565042 -0.36820763 4.836943 6.267993 -0.073791414 4.80253 6.2577276 -0.39174333 4.5727053 6.427455 -0.046520587 4.533934 6.4361744 -0.38751444 4.0998135 6.638411 -0.24984859 4.021369 6.4783235 -0.54245347 3.8940263 6.5779014 -0.4842406 3.9732988 6.3794255 -0.39872998 3.8187988 6.481397 -0.29212072 4.0015597 6.2377467 0.09542429 3.817796 6.5693517 -0.087108724 4.0055084 6.344622 0.27347904 1.210826 7.981112 -0.50528884 0.39746094 8.105316 -0.42328385 1.143714 7.7754955 0.0227119 0 7.7591033 0.27162656 0.68481445 7.049667 0.39890328 0 7.0451083 0.5667958 0.54589844 6.501116 0.31340167 0 6.6545625 0.5076284 0.5593262 5.6086426 0.41552734 0 5.524658 0.66796875 0.4572754 4.9470215 0.59399414 0 4.9245605 0.6340332 0.10107422 4.316162 0.057861328 0 4.3146973 0.07324219 1.143714 7.7754955 0.0227119 0.68481445 7.049667 0.39890328 1.0078198 7.1663265 0.09665237 0.54589844 6.501116 0.31340167 1.0307117 6.9849205 -0.35717303 0.66015625 6.4580655 -0.2898279 1.0175533 7.2738957 -0.78959554 0 6.433035 -0.56066936 0 7.216791 -0.971141 -1.0175533 7.2738957 -0.78959554 0 7.864092 -0.9373302 -1.210826 7.981112 -0.50528884 -0.39746094 8.105316 -0.42328385 3.8187988 6.481397 -0.29212072 2.8576727 6.635258 -0.37904352 3.8940263 6.5779014 -0.4842406 2.9020007 6.861686 -0.7286886 3.9245276 6.708712 -0.2616569 2.9252317 7.2727866 -0.41069558 2.8899324 6.87927 -0.07365133 2.63299 7.2560987 -0.39122453 2.576533 6.942589 -0.2311926 2.4447994 6.9610868 -0.18017313 0.57128906 9.2799835 -0.53126055 0.35888672 8.515307 0.15230627 0.47875977 8.7497835 -0.2400796 0.3659668 8.610117 -0.23938979 0 8.814496 -0.6005839 0 8.145631 -0.7854303 -0.3659668 8.610117 -0.23938979 -0.39746094 8.105316 -0.42328385 0 7.99338 -0.0037270456 0 4.98291 -0.64868164 -0.49047852 4.937256 -0.5991211 0 5.605957 -0.43359375 -0.671875 5.657959 -0.23413086 -0.66015625 6.4580655 -0.2898279 -0.5593262 5.6086426 0.41552734 -0.54589844 6.501116 0.31340167 0 6.6545625 0.5076284 0 7.0451083 0.5667958 4.0015597 6.2377467 0.09542429 3.9732988 6.3794255 -0.39872998 4.224271 6.370925 0.11290059 4.486431 6.2462597 -0.02443464 4.5101347 6.2859335 0.11513065 4.574054 6.2371173 -0.052922025 4.6883707 6.1951537 0.02810526 4.8074365 6.2910028 -0.013641187 5.0497956 6.087085 0.033889897 3.8187988 6.481397 -0.29212072 3.817796 6.5693517 -0.087108724 2.8576727 6.635258 -0.37904352 2.8899324 6.87927 -0.07365133 2.5269682 6.7489905 -0.40951225 2.576533 6.942589 -0.2311926 2.4107769 6.8125906 -0.4020692 2.4447994 6.9610868 -0.18017313 -0.3659668 8.610117 -0.23938979 0 8.400238 0.0656342 -0.35888672 8.515307 0.15230627 0 8.2343 0.37538764 0 8.289394 0.53689635 0.35888672 8.515307 0.15230627 0.4506836 9.173834 0.26963902 0.57128906 9.2799835 -0.53126055 4.45556 6.242902 -0.39219177 4.52133 6.2283583 -0.3925247 4.574054 6.2371173 -0.052922025 4.68243 6.165289 -0.39046282 4.7225075 6.171712 -0.060003437 4.9646597 6.011218 -0.22249727 5.100967 6.0595655 -0.10284814 5.062713 6.0565042 -0.36820763 -1.103358 6.9973693 -0.37184718 -1.0307117 6.9849205 -0.35717303 -1.1395319 7.1776643 0.084281154 -1.0078198 7.1663265 0.09665237 -1.2630672 7.6979175 0.00676642 -1.143714 7.7754955 0.0227119 -1.3214464 7.8554287 -0.5146821 -1.210826 7.981112 -0.50528884 1.4168142 0.016284306 -0.9639029 1.3257959 0.60539234 -0.8505495 1.7021347 0.016297663 -0.63684976 1.5775799 0.56731844 -0.5731607 1.8877155 0.016322143 0.19817244 1.3908951 0.3904446 0.29352477 1.6402972 0.016550466 0.7758571 1.2887944 0.016482724 0.94207346 0.54589844 6.501116 0.31340167 0.5593262 5.6086426 0.41552734 0.66015625 6.4580655 -0.2898279 0.671875 5.657959 -0.23413086 0 5.605957 -0.43359375 0.49047852 4.937256 -0.5991211 0 4.98291 -0.64868164 -1.7021347 0.016297663 -0.63684976 -1.8877155 0.016322143 0.19817244 -1.5775799 0.56731844 -0.5731607 -1.3908951 0.3904446 0.29352477 -1.2928729 0.65722483 -0.23674692 -1.0426191 0.016377157 0.31566274 -1.1812866 0.016395496 -0.21951883 4.224271 6.370925 0.11290059 4.5101347 6.2859335 0.11513065 4.5727053 6.427455 -0.046520587 4.7443275 6.250237 0.13292964 4.8074365 6.2910028 -0.013641187 5.024105 6.092133 0.15458618 5.0497956 6.087085 0.033889897 0 6.6545625 0.5076284 -0.5593262 5.6086426 0.41552734 0 5.524658 0.66796875 -0.4572754 4.9470215 0.59399414 0 4.9245605 0.6340332 -0.10107422 4.316162 0.057861328 0 4.3146973 0.07324219 0.39746094 8.105316 -0.42328385 0 7.99338 -0.0037270456 0 7.7591033 0.27162656 -0.39746094 8.105316 -0.42328385 -1.143714 7.7754955 0.0227119 -1.210826 7.981112 -0.50528884 2.8576727 6.635258 -0.37904352 2.5269682 6.7489905 -0.40951225 2.9020007 6.861686 -0.7286886 2.6218994 6.9399776 -0.6677782 2.9252317 7.2727866 -0.41069558 2.63299 7.2560987 -0.39122453 0.66015625 6.4580655 -0.2898279 0 5.605957 -0.43359375 0 6.433035 -0.56066936 -0.66015625 6.4580655 -0.2898279 -1.0175533 7.2738957 -0.78959554 -1.0307117 6.9849205 -0.35717303 4.5101347 6.2859335 0.11513065 4.6883707 6.1951537 0.02810526 4.7443275 6.250237 0.13292964 4.9696636 6.0209894 0.073483795 5.024105 6.092133 0.15458618 5.0497956 6.087085 0.033889897 4.8074365 6.2910028 -0.013641187 4.574054 6.2371173 -0.052922025 4.5727053 6.427455 -0.046520587 4.7225075 6.171712 -0.060003437 4.836943 6.267993 -0.073791414 5.100967 6.0595655 -0.10284814 4.3194385 6.022984 0.41110894 4.4378943 6.0466065 0.31850952 4.0055084 6.344622 0.27347904 4.224271 6.370925 0.11290059 4.0998135 6.638411 -0.24984859 4.5727053 6.427455 -0.046520587 1.703256 7.5485983 -0.34817064 1.2630672 7.6979175 0.00676642 1.4119196 7.293314 -0.041524533 1.1395319 7.1776643 0.084281154 1.103358 6.9973693 -0.37184718 1.0307117 6.9849205 -0.35717303 0 8.814496 -0.6005839 -0.3659668 8.610117 -0.23938979 -0.47875977 8.7497835 -0.2400796 -0.35888672 8.515307 0.15230627 -0.57128906 9.2799835 -0.53126055 -0.4506836 9.173834 0.26963902 -0.6762214 3.0340662 -0.14097929 -0.7450514 2.879845 -0.16288279 -0.9525527 3.1321986 -0.46307003 -1.0190727 2.9695067 -0.5396469 -1.2455246 2.9726324 -0.1251144 -1.8877155 0.016322143 0.19817244 -1.6402972 0.016550466 0.7758571 -1.3908951 0.3904446 0.29352477 -1.2887944 0.016482724 0.94207346 -1.0426191 0.016377157 0.31566274 -0.39746094 8.105316 -0.42328385 0 8.145631 -0.7854303 0 7.864092 -0.9373302 0.39746094 8.105316 -0.42328385 1.210826 7.981112 -0.50528884 0.4572754 4.9470215 0.59399414 0.5209117 4.708597 0.57589006 0.7866211 5.296631 0.041992188 0.8886281 4.9906816 0.032678187 0.5737938 4.6935525 -0.5397578 1.4492903 7.2793274 -0.6927845 1.103358 6.9973693 -0.37184718 1.1518956 7.2665 -0.7774249 1.0307117 6.9849205 -0.35717303 1.0175533 7.2738957 -0.78959554 1.1518956 7.2665 -0.7774249 1.0175533 7.2738957 -0.78959554 1.3214464 7.8554287 -0.5146821 1.210826 7.981112 -0.50528884 1.143714 7.7754955 0.0227119 0.49047852 4.937256 -0.5991211 0.671875 5.657959 -0.23413086 0.7866211 5.296631 0.041992188 0.5593262 5.6086426 0.41552734 0.4572754 4.9470215 0.59399414 1.3257959 0.60539234 -0.8505495 1.2993064 0.8126437 -0.80418026 1.5775799 0.56731844 -0.5731607 1.494812 0.74341637 -0.59515285 1.285964 0.8328874 -0.29682532 -0.14350086 4.1719246 0.02267927 -0.10107422 4.316162 0.057861328 -0.5209117 4.708597 0.57589006 -0.4572754 4.9470215 0.59399414 -0.7866211 5.296631 0.041992188 -1.5775799 0.56731844 -0.5731607 -1.2928729 0.65722483 -0.23674692 -1.285964 0.8328874 -0.29682532 -1.0734507 0.69650006 -0.65004396 -1.1294261 0.9038652 -0.6121033 1.2254258 2.1274793 -0.045506652 0.82197917 2.1391544 -0.50800335 1.285964 0.8328874 -0.29682532 1.1294261 0.9038652 -0.6121033 1.0734507 0.69650006 -0.65004396 2.6218994 6.9399776 -0.6677782 2.4805317 6.9865375 -0.63144624 2.63299 7.2560987 -0.39122453 2.4794216 7.233383 -0.37416348 2.4447994 6.9610868 -0.18017313 -0.5241699 9.724279 -0.4871301 -0.3413086 9.942441 -0.425884 0 9.747596 -0.7832589 0 10.007641 -0.42941263 0.3413086 9.942441 -0.425884 3.817796 6.5693517 -0.087108724 4.0055084 6.344622 0.27347904 3.9245276 6.708712 -0.2616569 4.0998135 6.638411 -0.24984859 3.8940263 6.5779014 -0.4842406 1.0734507 0.69650006 -0.65004396 1.1185545 0.016340585 -0.72280425 1.2928729 0.65722483 -0.23674692 1.1812866 0.016395496 -0.21951883 1.0426191 0.016377157 0.31566274 -1.1294261 0.9038652 -0.6121033 -1.0734507 0.69650006 -0.65004396 -1.2993064 0.8126437 -0.80418026 -1.3257959 0.60539234 -0.8505495 -1.5775799 0.56731844 -0.5731607 0.6762214 3.0340662 -0.14097929 0.7450514 2.879845 -0.16288279 0.96429604 3.05098 0.24181873 1.0398096 2.8099859 0.1115884 1.2455246 2.9726324 -0.1251144 0 7.0451083 0.5667958 0 7.7591033 0.27162656 -0.68481445 7.049667 0.39890328 -1.143714 7.7754955 0.0227119 -1.0078198 7.1663265 0.09665237 1.703256 7.5485983 -0.34817064 1.3214464 7.8554287 -0.5146821 1.2630672 7.6979175 0.00676642 1.143714 7.7754955 0.0227119 1.0078198 7.1663265 0.09665237 -1.4168142 0.016284306 -0.9639029 -1.3257959 0.60539234 -0.8505495 -1.1185545 0.016340585 -0.72280425 -1.0734507 0.69650006 -0.65004396 -1.2928729 0.65722483 -0.23674692 4.0055084 6.344622 0.27347904 4.0015597 6.2377467 0.09542429 4.3194385 6.022984 0.41110894 4.348268 5.936031 0.28897157 4.4378943 6.0466065 0.31850952 -0.6762214 3.0340662 -0.14097929 -0.96429604 3.05098 0.24181873 -0.7450514 2.879845 -0.16288279 -1.0398096 2.8099859 0.1115884 -0.9525527 3.1321986 -0.46307003 -1.2455246 2.9726324 -0.1251144 -1.2301795 3.123601 -0.113764584 -0.96429604 3.05098 0.24181873 1.210826 7.981112 -0.50528884 1.0175533 7.2738957 -0.78959554 0 7.864092 -0.9373302 0 7.216791 -0.971141 -0.14350086 4.1719246 0.02267927 -0.5737938 4.6935525 -0.5397578 -0.10107422 4.316162 0.057861328 -0.49047852 4.937256 -0.5991211 -0.5209117 4.708597 0.57589006 -0.7866211 5.296631 0.041992188 -0.8886281 4.9906816 0.032678187 -0.5737938 4.6935525 -0.5397578 -1.103358 6.9973693 -0.37184718 -1.1518956 7.2665 -0.7774249 -1.0307117 6.9849205 -0.35717303 -1.0175533 7.2738957 -0.78959554 -1.1518956 7.2665 -0.7774249 -1.3214464 7.8554287 -0.5146821 -1.0175533 7.2738957 -0.78959554 -1.210826 7.981112 -0.50528884 0.6762214 3.0340662 -0.14097929 0.9525527 3.1321986 -0.46307003 0.7450514 2.879845 -0.16288279 1.0190727 2.9695067 -0.5396469 2.4107769 6.8125906 -0.4020692 2.4805317 6.9865375 -0.63144624 2.5269682 6.7489905 -0.40951225 2.6218994 6.9399776 -0.6677782 0.96429604 3.05098 0.24181873 1.2455246 2.9726324 -0.1251144 1.2301795 3.123601 -0.113764584 0.9525527 3.1321986 -0.46307003 1.1812866 0.016395496 -0.21951883 1.1185545 0.016340585 -0.72280425 1.7021347 0.016297663 -0.63684976 1.4168142 0.016284306 -0.9639029 1.4168142 0.016284306 -0.9639029 1.1185545 0.016340585 -0.72280425 1.3257959 0.60539234 -0.8505495 1.0734507 0.69650006 -0.65004396 1.2887944 0.016482724 0.94207346 1.3908951 0.3904446 0.29352477 1.0426191 0.016377157 0.31566274 1.2928729 0.65722483 -0.23674692 1.1294261 0.9038652 -0.6121033 1.2993064 0.8126437 -0.80418026 1.0734507 0.69650006 -0.65004396 1.3257959 0.60539234 -0.8505495 1.5775799 0.56731844 -0.5731607 1.285964 0.8328874 -0.29682532 1.2928729 0.65722483 -0.23674692 1.0734507 0.69650006 -0.65004396 3.9732988 6.3794255 -0.39872998 4.45556 6.242902 -0.39219177 4.486431 6.2462597 -0.02443464 4.574054 6.2371173 -0.052922025 -0.43554688 9.626937 0.18681979 0 9.654919 0.47206634 -0.2553711 9.886963 0.074792095 0 9.951938 0.06198461 0.43554688 9.626937 0.18681979 0.2553711 9.886963 0.074792095 0 9.654919 0.47206634 0 9.951938 0.06198461 -0.66015625 6.4580655 -0.2898279 -0.54589844 6.501116 0.31340167 -1.0307117 6.9849205 -0.35717303 -1.0078198 7.1663265 0.09665237 4.844887 6.041386 -0.5059861 4.6372447 6.1801367 -0.4885866 4.6881733 6.205252 -0.5660328 4.506843 6.3175964 -0.5484353 4.6372447 6.1801367 -0.4885866 4.52133 6.2283583 -0.3925247 4.506843 6.3175964 -0.5484353 4.45556 6.242902 -0.39219177 -0.49047852 4.937256 -0.5991211 -0.7866211 5.296631 0.041992188 -0.671875 5.657959 -0.23413086 -0.5593262 5.6086426 0.41552734 0 8.145631 -0.7854303 0.3659668 8.610117 -0.23938979 0.39746094 8.105316 -0.42328385 0 7.99338 -0.0037270456 0.14350086 4.1719246 0.02267927 0.5209117 4.708597 0.57589006 0.10107422 4.316162 0.057861328 0.4572754 4.9470215 0.59399414 0 7.0451083 0.5667958 -0.68481445 7.049667 0.39890328 -0.54589844 6.501116 0.31340167 -1.0078198 7.1663265 0.09665237 0.7866211 5.296631 0.041992188 0.5737938 4.6935525 -0.5397578 0.49047852 4.937256 -0.5991211 0.10107422 4.316162 0.057861328 -1.2993064 0.8126437 -0.80418026 -1.5775799 0.56731844 -0.5731607 -1.494812 0.74341637 -0.59515285 -1.285964 0.8328874 -0.29682532 1.0307117 6.9849205 -0.35717303 1.1395319 7.1776643 0.084281154 1.0078198 7.1663265 0.09665237 1.2630672 7.6979175 0.00676642 -1.1812866 0.016395496 -0.21951883 -1.7021347 0.016297663 -0.63684976 -1.1185545 0.016340585 -0.72280425 -1.4168142 0.016284306 -0.9639029 -1.4168142 0.016284306 -0.9639029 -1.7021347 0.016297663 -0.63684976 -1.3257959 0.60539234 -0.8505495 -1.5775799 0.56731844 -0.5731607 -0.35888672 8.515307 0.15230627 0 8.289394 0.53689635 -0.4506836 9.173834 0.26963902 0 9.134856 0.5830716 -1.2254258 2.1274793 -0.045506652 -1.285964 0.8328874 -0.29682532 -0.82197917 2.1391544 -0.50800335 -1.1294261 0.9038652 -0.6121033 0 8.2343 0.37538764 0 8.400238 0.0656342 0.35888672 8.515307 0.15230627 0.3659668 8.610117 -0.23938979 -0.3659668 8.610117 -0.23938979 0 7.99338 -0.0037270456 0 8.400238 0.0656342 0.3659668 8.610117 -0.23938979 1.1518956 7.2665 -0.7774249 1.3214464 7.8554287 -0.5146821 1.703256 7.5485983 -0.34817064 1.4492903 7.2793274 -0.6927845 4.021369 6.4783235 -0.54245347 4.506843 6.3175964 -0.5484353 4.45556 6.242902 -0.39219177 3.9732988 6.3794255 -0.39872998 4.348268 5.936031 0.28897157 4.0015597 6.2377467 0.09542429 4.224271 6.370925 0.11290059 4.4378943 6.0466065 0.31850952 1.3908951 0.3904446 0.29352477 1.5775799 0.56731844 -0.5731607 1.2928729 0.65722483 -0.23674692 0.14350086 4.1719246 0.02267927 0.10107422 4.316162 0.057861328 0.5737938 4.6935525 -0.5397578 -0.96429604 3.05098 0.24181873 -1.2455246 2.9726324 -0.1251144 -1.0398096 2.8099859 0.1115884 0.9525527 3.1321986 -0.46307003 1.2455246 2.9726324 -0.1251144 1.0190727 2.9695067 -0.5396469 0.3413086 9.942441 -0.425884 0.5241699 9.724279 -0.4871301 0 9.747596 -0.7832589 -0.49047852 4.937256 -0.5991211 -0.5737938 4.6935525 -0.5397578 -0.7866211 5.296631 0.041992188 -1.2928729 0.65722483 -0.23674692 -1.1812866 0.016395496 -0.21951883 -1.1185545 0.016340585 -0.72280425 -0.7866211 5.296631 0.041992188 -0.4572754 4.9470215 0.59399414 -0.5593262 5.6086426 0.41552734 4.6883707 6.1951537 0.02810526 5.0497956 6.087085 0.033889897 4.9696636 6.0209894 0.073483795 0.4506836 9.173834 0.26963902 0 9.134856 0.5830716 0 8.289394 0.53689635 4.934617 6.095161 -0.45461488 4.9107056 6.0848603 -0.5725294 4.7519717 6.274576 -0.44854698 2.8899324 6.87927 -0.07365133 3.817796 6.5693517 -0.087108724 3.9245276 6.708712 -0.2616569 5.062713 6.0565042 -0.36820763 4.9646597 6.011218 -0.22249727 4.68243 6.165289 -0.39046282 </float_array>
          <technique_common>
            <accessor source="#positions-array" count="812" stride="3">
              <param name="X" type="float"/>
              <param name="Y" type="float"/>
              <param name="Z" type="float"/>
            </accessor>
          </technique_common>
        </source>
        <source id="texcoords">
          <float_array id="texcoords-array" count="1624">0.032714844 0.016113281 0.22021484 0.016113281 0.072265625 0.06933594 0.22363281 0.06640625 0.09765625 0.12109375 0.21484375 0.115722656 0.06640625 0.18701172 0.21972656 0.1850586 0.032714844 0.2397461 0.22021484 0.2397461 0.1352539 0.48828125 0.08935547 0.44677734 0.1875 0.48242188 0.21386719 0.45361328 0.25927734 0.47753906 0.25927734 0.45263672 0.33984375 0.44970703 0.3046875 0.37353516 0.38671875 0.36669922 0.30273438 0.3232422 0.37890625 0.3178711 0.3071289 0.27294922 0.37109375 0.26660156 0.43115234 0.2397461 0.28759766 0.2397461 0.43115234 0.1875 0.28320313 0.18164063 0.43115234 0.12451172 0.27441406 0.115722656 0.28564453 0.06542969 0.2446289 0.06542969 0.23828125 0.016113281 0.22363281 0.06640625 0.22021484 0.016113281 0.08935547 0.44677734 0.091308594 0.41210938 0.21386719 0.45361328 0.12646484 0.37646484 0.21679688 0.37597656 0.13232422 0.3569336 0.21875 0.36376953 0.20996094 0.33544922 0.21972656 0.3461914 0.21972656 0.32470703 0.2866211 0.2944336 0.2890625 0.33203125 0.25927734 0.29785156 0.25927734 0.33789063 0.24365234 0.3046875 0.23828125 0.34375 0.23144531 0.2944336 0.22802734 0.33398438 0.21972656 0.32470703 0.20996094 0.33544922 0.21044922 0.27294922 0.17578125 0.28466797 0.14746094 0.26660156 0.14208984 0.32910156 0.13378906 0.31640625 0.13183594 0.33642578 0.28759766 0.2397461 0.23828125 0.2397461 0.28320313 0.18164063 0.23828125 0.18652344 0.23486328 0.115234375 0.21972656 0.1850586 0.21484375 0.115722656 0.033203125 0.12060547 0.09765625 0.12109375 0.032226563 0.1586914 0.06640625 0.18701172 0.033203125 0.20800781 0.032714844 0.2397461 0.044433594 0.35498047 0.040039063 0.3803711 0.009277344 0.38085938 0.08935547 0.44677734 0.05126953 0.45263672 0.1352539 0.48828125 0.4663086 0.4453125 0.33984375 0.44970703 0.4267578 0.41455078 0.38671875 0.36669922 0.42578125 0.3671875 0.42919922 0.33007813 0.17578125 0.28466797 0.20996094 0.33544922 0.14208984 0.32910156 0.13232422 0.3569336 0.13183594 0.33642578 0.122558594 0.3227539 0.122558594 0.3227539 0.10595703 0.33496094 0.111328125 0.265625 0.096191406 0.28271484 0.072265625 0.27490234 0.08105469 0.32958984 0.43115234 0.12451172 0.28564453 0.06542969 0.43115234 0.06738281 0.28759766 0.016113281 0.43115234 0.016113281 0.25927734 0.47753906 0.33984375 0.44970703 0.33740234 0.47998047 0.4663086 0.4453125 0.3798828 0.4873047 0.40429688 0.27539063 0.43310547 0.27929688 0.3935547 0.32373047 0.42919922 0.33007813 0.38671875 0.36669922 0.21972656 0.3461914 0.22802734 0.33398438 0.21875 0.36376953 0.23828125 0.34375 0.25927734 0.37109375 0.28320313 0.18164063 0.23486328 0.115234375 0.27441406 0.115722656 0.2446289 0.06542969 0.21484375 0.115722656 0.22363281 0.06640625 0.23486328 0.115234375 0.2446289 0.06542969 0.23828125 0.2397461 0.22021484 0.2397461 0.23828125 0.18652344 0.21972656 0.1850586 0.49804688 0.37939453 0.4663086 0.4453125 0.47509766 0.36376953 0.4267578 0.41455078 0.25927734 0.45263672 0.25927734 0.37109375 0.3046875 0.37353516 0.2890625 0.33203125 0.091308594 0.41210938 0.08984375 0.36767578 0.12646484 0.37646484 0.13232422 0.3569336 0.2890625 0.33203125 0.25927734 0.37109375 0.25927734 0.33789063 0.23828125 0.34375 0.096191406 0.28271484 0.10595703 0.33496094 0.08105469 0.32958984 0.08984375 0.36767578 0.08984375 0.36767578 0.10595703 0.33496094 0.13232422 0.3569336 0.122558594 0.3227539 0.032226563 0.064453125 0.072265625 0.06933594 0.09765625 0.12109375 0.033203125 0.12060547 0.25927734 0.45263672 0.21386719 0.45361328 0.21679688 0.37597656 0.25927734 0.37109375 0.040039063 0.3803711 0.044433594 0.35498047 0.091308594 0.41210938 0.08935547 0.44677734 0.23828125 0.016113281 0.28759766 0.016113281 0.28564453 0.06542969 0.032714844 0.016113281 0.072265625 0.06933594 0.032226563 0.064453125 0.25927734 0.29785156 0.24365234 0.3046875 0.23144531 0.2944336 0.25927734 0.37109375 0.21679688 0.37597656 0.21875 0.36376953 0.97265625 0.06640625 0.7792969 0.7675781 0.5097656 0.0625 0.50097656 0.9824219 0.19824219 0.5527344 0.97265625 0.06640625 0.5097656 0.0625 0.7792969 0.7675781 0.50097656 0.9824219 0.01953125 0.0625 0.19824219 0.5527344 0.5097656 0.0625 0.50097656 0.9824219 0.19824219 0.5527344 0.01953125 0.0625 0.5097656 0.0625 0.22021484 0.016113281 0.032714844 0.016113281 0.22363281 0.06640625 0.072265625 0.06933594 0.21484375 0.115722656 0.09765625 0.12109375 0.21972656 0.1850586 0.06640625 0.18701172 0.22021484 0.2397461 0.032714844 0.2397461 0.7089844 0.28027344 0.796875 0.28027344 0.7167969 0.20947266 0.7973633 0.21044922 0.7109375 0.15283203 0.7993164 0.14013672 0.7167969 0.08300781 0.79296875 0.08251953 0.7104492 0.009277344 0.796875 0.009277344 0.796875 0.28027344 0.7089844 0.28027344 0.7973633 0.21044922 0.7167969 0.20947266 0.7993164 0.14013672 0.7109375 0.15283203 0.79296875 0.08251953 0.7167969 0.08300781 0.796875 0.009277344 0.7104492 0.009277344 0.6879883 0.009277344 0.5341797 0.009277344 0.6899414 0.080566406 0.5126953 0.075683594 0.69091797 0.14794922 0.4819336 0.1352539 0.6855469 0.21044922 0.49316406 0.21875 0.6894531 0.28027344 0.5332031 0.28027344 0.5341797 0.009277344 0.6879883 0.009277344 0.5126953 0.075683594 0.6899414 0.080566406 0.4819336 0.1352539 0.69091797 0.14794922 0.49316406 0.21875 0.6855469 0.21044922 0.5332031 0.28027344 0.6894531 0.28027344 0.16503906 0.92041016 0.34423828 0.90478516 0.14355469 0.99072266 0.35986328 0.96728516 0.16503906 0.92041016 0.34423828 0.90478516 0.16992188 0.85253906 0.33544922 0.83203125 0.16259766 0.7578125 0.34375 0.73535156 0.7973633 0.21044922 0.9458008 0.21972656 0.7993164 0.14013672 0.96191406 0.14746094 0.79296875 0.08251953 0.9550781 0.07861328 0.796875 0.009277344 0.93847656 0.009277344 0.9458008 0.21972656 0.7973633 0.21044922 0.96191406 0.14746094 0.7993164 0.14013672 0.9550781 0.07861328 0.79296875 0.08251953 0.93847656 0.009277344 0.796875 0.009277344 0.8823242 0.3408203 0.8808594 0.33740234 0.8881836 0.34326172 0.88720703 0.33496094 0.8964844 0.34179688 0.8925781 0.33642578 0.53515625 0.34472656 0.61035156 0.44726563 0.515625 0.34472656 0.515625 0.45458984 0.53515625 0.34472656 0.61035156 0.44726563 0.8964844 0.34179688 0.8925781 0.33642578 0.8881836 0.34326172 0.88720703 0.33496094 0.8823242 0.3408203 0.8808594 0.33740234 0.34423828 0.90478516 0.16503906 0.92041016 0.33544922 0.83203125 0.16992188 0.85253906 0.34375 0.73535156 0.16259766 0.7578125 0.33544922 0.83203125 0.34375 0.73535156 0.46435547 0.8378906 0.46435547 0.7270508 0.33544922 0.83203125 0.34375 0.73535156 0.19873047 0.6508789 0.01953125 0.66015625 0.16259766 0.7578125 0.01953125 0.76123047 0.16992188 0.85253906 0.01953125 0.8564453 0.01953125 0.66015625 0.19873047 0.6508789 0.01953125 0.76123047 0.16259766 0.7578125 0.01953125 0.8564453 0.16992188 0.85253906 0.25927734 0.45263672 0.3046875 0.37353516 0.25927734 0.37109375 0.2890625 0.33203125 0.25927734 0.33789063 0.25927734 0.29785156 0.24365234 0.3046875 0.23144531 0.2944336 0.23828125 0.34375 0.22802734 0.33398438 0.21875 0.36376953 0.21972656 0.3461914 0.20996094 0.33544922 0.21972656 0.32470703 0.21044922 0.27294922 0.37109375 0.26660156 0.3071289 0.27294922 0.37890625 0.3178711 0.30273438 0.3232422 0.38671875 0.36669922 0.3046875 0.37353516 0.33984375 0.44970703 0.25927734 0.45263672 0.25927734 0.47753906 0.21386719 0.45361328 0.1875 0.48242188 0.08935547 0.44677734 0.1352539 0.48828125 0.05126953 0.45263672 0.7495117 0.97265625 0.91064453 0.9926758 0.7783203 0.91259766 0.9873047 0.91015625 0.85498047 0.77441406 0.9873047 0.7739258 0.87890625 0.69677734 0.9873047 0.7216797 0.87109375 0.5546875 0.9873047 0.5756836 0.8989258 0.44873047 0.9873047 0.47998047 0.96777344 0.37939453 0.9873047 0.37890625 0.7783203 0.91259766 0.85498047 0.77441406 0.79248047 0.79296875 0.87890625 0.69677734 0.75146484 0.7636719 0.66796875 0.6899414 0.73046875 0.8203125 0.515625 0.68603516 0.515625 0.81640625 0.73046875 0.8203125 0.515625 0.9145508 0.7495117 0.97265625 0.59228516 0.984375 0.43115234 0.016113281 0.28759766 0.016113281 0.43115234 0.06738281 0.28564453 0.06542969 0.43115234 0.12451172 0.27441406 0.115722656 0.28320313 0.18164063 0.23486328 0.115234375 0.23828125 0.18652344 0.21972656 0.1850586 0.16259766 0.7578125 0.34277344 0.59472656 0.19873047 0.6508789 0.19970703 0.62158203 0.01953125 0.66015625 0.01953125 0.51904297 0.19970703 0.62158203 0.16357422 0.50927734 0.31982422 0.49902344 0.515625 0.45458984 0.61035156 0.44726563 0.515625 0.5541992 0.66796875 0.5625 0.66796875 0.6899414 0.87109375 0.5546875 0.87890625 0.69677734 0.9873047 0.7216797 0.9873047 0.7739258 0.08935547 0.44677734 0.21386719 0.45361328 0.091308594 0.41210938 0.12646484 0.37646484 0.08984375 0.36767578 0.13232422 0.3569336 0.10595703 0.33496094 0.122558594 0.3227539 0.111328125 0.265625 0.43115234 0.2397461 0.43115234 0.1875 0.28759766 0.2397461 0.28320313 0.18164063 0.23828125 0.2397461 0.23828125 0.18652344 0.22021484 0.2397461 0.21972656 0.1850586 0.19970703 0.62158203 0.33984375 0.55615234 0.34277344 0.59472656 0.46435547 0.5234375 0.46435547 0.5541992 0.34277344 0.59472656 0.34375 0.73535156 0.16259766 0.7578125 0.21679688 0.37597656 0.21875 0.36376953 0.13232422 0.3569336 0.20996094 0.33544922 0.14208984 0.32910156 0.17578125 0.28466797 0.14746094 0.26660156 0.21044922 0.27294922 0.032714844 0.2397461 0.013183594 0.2397461 0.033203125 0.20800781 0.013183594 0.21044922 0.032226563 0.1586914 0.013183594 0.15820313 0.033203125 0.12060547 0.013183594 0.12207031 0.85253906 0.4404297 0.84277344 0.37402344 0.81347656 0.44628906 0.8105469 0.3852539 0.69384766 0.4399414 0.68896484 0.37451172 0.6191406 0.40625 0.59814453 0.36035156 0.87890625 0.69677734 0.87109375 0.5546875 0.66796875 0.6899414 0.66796875 0.5625 0.515625 0.5541992 0.61035156 0.44726563 0.515625 0.45458984 0.81347656 0.44628906 0.69384766 0.4399414 0.8105469 0.3852539 0.68896484 0.37451172 0.7631836 0.36767578 0.68115234 0.32128906 0.75097656 0.31152344 0.4267578 0.41455078 0.42578125 0.3671875 0.38671875 0.36669922 0.42919922 0.33007813 0.3935547 0.32373047 0.43310547 0.27929688 0.40429688 0.27539063 0.9873047 0.7216797 0.87109375 0.5546875 0.9873047 0.5756836 0.8989258 0.44873047 0.9873047 0.47998047 0.96777344 0.37939453 0.9873047 0.37890625 0.91064453 0.9926758 0.9873047 0.96728516 0.9873047 0.91015625 0.91064453 0.9926758 0.7783203 0.91259766 0.7495117 0.97265625 0.28759766 0.016113281 0.23828125 0.016113281 0.28564453 0.06542969 0.2446289 0.06542969 0.27441406 0.115722656 0.23486328 0.115234375 0.66796875 0.6899414 0.515625 0.5541992 0.515625 0.68603516 0.66796875 0.6899414 0.73046875 0.8203125 0.75146484 0.7636719 0.08984375 0.36767578 0.10595703 0.33496094 0.08105469 0.32958984 0.096191406 0.28271484 0.072265625 0.27490234 0.111328125 0.265625 0.122558594 0.3227539 0.13232422 0.3569336 0.13183594 0.33642578 0.14208984 0.32910156 0.13378906 0.31640625 0.14746094 0.26660156 0.49804688 0.37939453 0.47509766 0.36376953 0.4663086 0.4453125 0.4267578 0.41455078 0.33984375 0.44970703 0.38671875 0.36669922 0.09765625 0.12109375 0.032226563 0.1586914 0.06640625 0.18701172 0.033203125 0.20800781 0.032714844 0.2397461 0.013183594 0.2397461 0.01953125 0.66015625 0.19970703 0.62158203 0.19873047 0.6508789 0.34277344 0.59472656 0.16259766 0.7578125 0.34375 0.73535156 0.6879883 0.009277344 0.7104492 0.009277344 0.6899414 0.080566406 0.7167969 0.08300781 0.7109375 0.15283203 0.69384766 0.4399414 0.6191406 0.40625 0.68896484 0.37451172 0.59814453 0.36035156 0.68115234 0.32128906 0.59228516 0.984375 0.515625 0.97753906 0.515625 0.9145508 0.59228516 0.984375 0.7495117 0.97265625 0.45996094 0.22167969 0.49316406 0.21875 0.44726563 0.12792969 0.4819336 0.1352539 0.5126953 0.075683594 0.072265625 0.06933594 0.032714844 0.016113281 0.032226563 0.064453125 0.013183594 0.016113281 0.013183594 0.064941406 0.032226563 0.064453125 0.013183594 0.064941406 0.033203125 0.12060547 0.013183594 0.12207031 0.013183594 0.15820313 0.61035156 0.44726563 0.66796875 0.5625 0.7705078 0.48291016 0.87109375 0.5546875 0.8989258 0.44873047 0.9868164 0.07763672 0.9550781 0.07861328 0.99072266 0.15625 0.96191406 0.14746094 0.9458008 0.21972656 0.5332031 0.28027344 0.50390625 0.28027344 0.49316406 0.21875 0.45996094 0.22167969 0.44726563 0.12792969 0.99072266 0.15625 0.9667969 0.21923828 0.9458008 0.21972656 0.9633789 0.28027344 0.9394531 0.28027344 0.7973633 0.21044922 0.796875 0.28027344 0.9458008 0.21972656 0.9394531 0.28027344 0.9633789 0.28027344 0.2446289 0.06542969 0.22363281 0.06640625 0.23486328 0.115234375 0.21484375 0.115722656 0.21972656 0.1850586 0.16992188 0.85253906 0.16503906 0.92041016 0.01953125 0.8564453 0.14355469 0.99072266 0.16503906 0.92041016 0.3798828 0.4873047 0.4663086 0.4453125 0.33740234 0.47998047 0.33984375 0.44970703 0.25927734 0.47753906 0.81591797 0.35302734 0.81396484 0.2993164 0.7631836 0.36767578 0.75097656 0.31152344 0.68115234 0.32128906 0.93847656 0.009277344 0.9638672 0.009277344 0.9550781 0.07861328 0.9868164 0.07763672 0.99072266 0.15625 0.6894531 0.28027344 0.7089844 0.28027344 0.6855469 0.21044922 0.7167969 0.20947266 0.7109375 0.15283203 0.9873047 0.7739258 0.9873047 0.91015625 0.85498047 0.77441406 0.7783203 0.91259766 0.79248047 0.79296875 0.09765625 0.12109375 0.033203125 0.12060547 0.032226563 0.1586914 0.013183594 0.15820313 0.013183594 0.21044922 0.8535156 0.30371094 0.8461914 0.36376953 0.81396484 0.2993164 0.81591797 0.35302734 0.7631836 0.36767578 0.05126953 0.45263672 0.08935547 0.44677734 0.009277344 0.38085938 0.040039063 0.3803711 0.044433594 0.35498047 0.6894531 0.28027344 0.6855469 0.21044922 0.7089844 0.28027344 0.7167969 0.20947266 0.6899414 0.080566406 0.7109375 0.15283203 0.69091797 0.14794922 0.6855469 0.21044922 0.7495117 0.97265625 0.73046875 0.8203125 0.515625 0.9145508 0.515625 0.81640625 0.5341797 0.009277344 0.5126953 0.075683594 0.50634766 0.009277344 0.47753906 0.072265625 0.49316406 0.21875 0.44726563 0.12792969 0.4819336 0.1352539 0.5126953 0.075683594 0.032714844 0.016113281 0.032226563 0.064453125 0.013183594 0.016113281 0.013183594 0.064941406 0.032226563 0.064453125 0.033203125 0.12060547 0.013183594 0.064941406 0.013183594 0.12207031 0.6879883 0.009277344 0.6899414 0.080566406 0.7104492 0.009277344 0.7167969 0.08300781 0.22021484 0.016113281 0.22363281 0.06640625 0.23828125 0.016113281 0.2446289 0.06542969 0.6855469 0.21044922 0.7109375 0.15283203 0.69091797 0.14794922 0.6899414 0.080566406 0.8925781 0.33642578 0.89746094 0.3359375 0.8964844 0.34179688 0.89990234 0.3388672 0.8535156 0.30371094 0.81396484 0.2993164 0.8461914 0.36376953 0.81591797 0.35302734 0.59814453 0.36035156 0.68896484 0.37451172 0.68115234 0.32128906 0.7631836 0.36767578 0.93847656 0.009277344 0.9550781 0.07861328 0.9638672 0.009277344 0.9868164 0.07763672 0.99072266 0.15625 0.9458008 0.21972656 0.9667969 0.21923828 0.9633789 0.28027344 0.21386719 0.45361328 0.21679688 0.37597656 0.12646484 0.37646484 0.13232422 0.3569336 0.33544922 0.83203125 0.46435547 0.8378906 0.34423828 0.90478516 0.35986328 0.96728516 0.33544922 0.83203125 0.34423828 0.90478516 0.46435547 0.8378906 0.35986328 0.96728516 0.66796875 0.6899414 0.87890625 0.69677734 0.75146484 0.7636719 0.79248047 0.79296875 0.24365234 0.3046875 0.23828125 0.34375 0.25927734 0.33789063 0.25927734 0.37109375 0.23828125 0.34375 0.21875 0.36376953 0.25927734 0.37109375 0.21679688 0.37597656 0.61035156 0.44726563 0.7705078 0.48291016 0.66796875 0.5625 0.87109375 0.5546875 0.01953125 0.51904297 0.19970703 0.62158203 0.16357422 0.50927734 0.31982422 0.49902344 0.5332031 0.28027344 0.49316406 0.21875 0.50390625 0.28027344 0.45996094 0.22167969 0.9873047 0.7739258 0.85498047 0.77441406 0.87890625 0.69677734 0.79248047 0.79296875 0.44726563 0.12792969 0.5126953 0.075683594 0.47753906 0.072265625 0.50634766 0.009277344 0.9550781 0.07861328 0.99072266 0.15625 0.96191406 0.14746094 0.9458008 0.21972656 0.013183594 0.2397461 0.033203125 0.20800781 0.013183594 0.21044922 0.032226563 0.1586914 0.8925781 0.33642578 0.8964844 0.34179688 0.89746094 0.3359375 0.89990234 0.3388672 0.85253906 0.4404297 0.81347656 0.44628906 0.84277344 0.37402344 0.8105469 0.3852539 0.34277344 0.59472656 0.46435547 0.5541992 0.34375 0.73535156 0.46435547 0.7270508 0.7973633 0.21044922 0.9458008 0.21972656 0.796875 0.28027344 0.9394531 0.28027344 0.46435547 0.5234375 0.33984375 0.55615234 0.34277344 0.59472656 0.19970703 0.62158203 0.19970703 0.62158203 0.31982422 0.49902344 0.33984375 0.55615234 0.19970703 0.62158203 0.032226563 0.064453125 0.033203125 0.12060547 0.09765625 0.12109375 0.072265625 0.06933594 0.25927734 0.45263672 0.25927734 0.37109375 0.21679688 0.37597656 0.21386719 0.45361328 0.040039063 0.3803711 0.08935547 0.44677734 0.091308594 0.41210938 0.044433594 0.35498047 0.68896484 0.37451172 0.8105469 0.3852539 0.7631836 0.36767578 0.5341797 0.009277344 0.50634766 0.009277344 0.5126953 0.075683594 0.6855469 0.21044922 0.7109375 0.15283203 0.7167969 0.20947266 0.6899414 0.080566406 0.7109375 0.15283203 0.7167969 0.08300781 0.16503906 0.92041016 0.16992188 0.85253906 0.01953125 0.8564453 0.47753906 0.072265625 0.5126953 0.075683594 0.44726563 0.12792969 0.7631836 0.36767578 0.75097656 0.31152344 0.81396484 0.2993164 0.7705078 0.48291016 0.8989258 0.44873047 0.87109375 0.5546875 0.10595703 0.33496094 0.111328125 0.265625 0.096191406 0.28271484 0.34375 0.73535156 0.46435547 0.7270508 0.46435547 0.5541992 0.2866211 0.2944336 0.25927734 0.29785156 0.2890625 0.33203125 0.28320313 0.18164063 0.43115234 0.1875 0.43115234 0.12451172 0.21044922 0.27294922 0.17578125 0.28466797 0.20996094 0.33544922 </float_array>
          <technique_common>
            <accessor source="#texcoords-array" count="812" stride="2">
              <param name="S" type="float"/>
              <param name="T" type="float"/>
            </accessor>
          </technique_common>
        </source>
        <vertices id="vertices">
          <input semantic="POSITION" source="#positions"/>
          <input semantic="TEXCOORD" source="#texcoords"/>
        </vertices>
        <polylist material="material0" count="106">
          <input semantic="VERTEX" source="#vertices" offset="0"/>
          <vcount>4 4 4 4 3 3 3 3 3 3 3 3 3 3 3 3 3 3 3 3 3 3 3 3 3 3 3 3 3 3 3 3 3 3 3 3 3 3 3 3 3 3 3 3 3 3 3 3 3 3 3 3 3 3 3 3 3 3 3 3 3 3 3 3 3 3 3 3 3 3 3 3 3 3 3 3 3 3 3 3 3 3 3 3 3 3 3 3 3 3 3 3 3 3 3 3 3 3 3 4 4 4 3 3 3 3 </vcount>
          <p>0 1 3 2 2 3 5 4 4 5 7 6 6 7 9 8 10 11 12 11 13 12 12 13 14 13 15 14 14 15 16 15 17 16 16 17 18 17 19 18 18 19 20 19 21 20 20 21 22 23 24 25 24 26 25 25 26 27 26 28 27 27 28 29 28 30 29 29 30 31 30 32 31 31 32 33 34 35 36 35 37 36 36 37 38 37 39 38 38 39 40 39 41 40 40 41 42 41 43 42 44 45 46 45 47 46 46 47 48 47 49 48 48 49 50 49 51 50 52 53 54 53 55 54 54 55 56 55 57 56 56 57 58 57 59 58 60 61 62 61 63 62 62 63 64 63 65 64 64 65 66 67 68 69 68 70 69 69 70 71 70 72 71 73 74 75 74 76 75 75 76 77 76 78 77 79 80 81 80 82 81 81 82 83 82 84 83 85 86 87 86 88 87 87 88 89 88 90 89 91 92 93 92 94 93 93 94 95 94 96 95 97 98 99 98 100 99 99 100 101 102 103 104 103 105 104 104 105 106 107 108 109 108 110 109 109 110 111 112 113 114 113 115 114 114 115 116 117 118 119 118 120 119 121 122 123 122 124 123 125 126 127 126 128 127 129 130 131 130 132 131 133 134 135 134 136 135 137 138 139 138 140 139 141 142 143 142 144 143 145 146 147 146 148 147 149 150 151 150 152 151 153 154 155 156 157 158 159 160 161 162 163 164 165 166 167 168 169 170 171 172 173 174 175 176 </p>
        </polylist>
        <polylist material="material2" count="8">
          <input semantic="VERTEX" source="#vertices" offset="0"/>
          <vcount>3 3 3 3 3 3 3 3 </vcount>
          <p>177 178 179 178 180 179 179 180 181 182 183 184 183 185 184 186 187 188 187 189 188 190 191 192 </p>
        </polylist>
        <polylist material="material1" count="350">
          <input semantic="VERTEX" source="#vertices" offset="0"/>
          <vcount>4 4 4 4 4 4 4 4 4 4 4 4 4 4 4 4 4 4 4 4 4 4 4 4 4 4 4 4 4 4 4 4 4 4 4 4 4 4 4 4 4 4 4 4 3 3 3 3 3 3 3 3 3 3 3 3 3 3 3 3 3 3 3 3 3 3 3 3 3 3 3 3 3 3 3 3 3 3 3 3 3 3 3 3 3 3 3 3 3 3 3 3 3 3 3 3 3 3 3 3 3 3 3 3 3 3 3 3 3 3 3 3 3 3 3 3 3 3 3 3 3 3 3 3 3 3 3 3 3 3 3 3 3 3 3 3 3 3 3 3 3 3 3 3 3 3 3 3 3 3 3 3 3 3 3 3 3 3 3 3 3 3 3 3 3 3 3 3 3 3 3 3 3 3 3 3 3 3 3 3 3 3 3 3 3 3 3 3 3 3 3 3 3 3 3 3 3 3 3 3 3 3 3 3 3 3 3 3 3 3 3 3 3 3 3 3 3 3 3 3 3 3 3 3 3 3 3 3 3 3 3 3 3 3 3 3 3 3 3 3 3 3 3 3 3 3 3 3 3 3 3 3 3 3 3 3 3 3 3 3 3 3 3 3 3 3 3 3 3 3 3 3 3 3 3 3 3 3 3 3 3 3 3 3 3 3 3 3 3 3 3 3 3 3 3 3 3 3 3 3 3 3 3 3 3 3 3 3 3 3 3 3 3 3 3 3 3 3 3 3 3 3 3 3 3 3 3 3 3 3 3 3 3 3 4 4 4 3 3 3 3 3 3 3 3 3 3 3 3 3 </vcount>
          <p>193 194 196 195 195 196 198 197 197 198 200 199 199 200 202 201 203 204 206 205 205 206 208 207 207 208 210 209 209 210 212 211 213 214 216 215 215 216 218 217 217 218 220 219 219 220 222 221 223 224 226 225 225 226 228 227 227 228 230 229 229 230 232 231 233 234 236 235 235 236 238 237 237 238 240 239 239 240 242 241 243 244 246 245 245 246 248 247 247 248 250 249 249 250 252 251 253 254 256 255 255 256 258 257 257 258 260 259 261 262 264 263 263 264 266 265 265 266 268 267 269 270 272 271 271 272 274 273 275 276 278 277 277 278 280 279 281 282 284 283 283 284 286 285 287 288 290 289 289 290 292 291 293 294 296 295 295 296 298 297 299 300 302 301 301 302 304 303 305 306 308 307 307 308 310 309 311 312 313 312 314 313 313 314 315 314 316 315 315 316 317 316 318 317 317 318 319 318 320 319 319 320 321 320 322 321 321 322 323 322 324 323 323 324 325 326 327 328 327 329 328 328 329 330 329 331 330 330 331 332 331 333 332 332 333 334 333 335 334 334 335 336 335 337 336 336 337 338 337 339 338 340 341 342 341 343 342 342 343 344 343 345 344 344 345 346 345 347 346 346 347 348 347 349 348 348 349 350 349 351 350 350 351 352 351 353 352 354 355 356 355 357 356 356 357 358 357 359 358 358 359 360 359 361 360 360 361 362 361 363 362 362 363 364 363 365 364 364 365 366 367 368 369 368 370 369 369 370 371 370 372 371 371 372 373 372 374 373 373 374 375 374 376 375 377 378 379 378 380 379 379 380 381 380 382 381 381 382 383 382 384 383 383 384 385 386 387 388 387 389 388 388 389 390 389 391 390 390 391 392 391 393 392 392 393 394 395 396 397 396 398 397 397 398 399 398 400 399 399 400 401 400 402 401 401 402 403 404 405 406 405 407 406 406 407 408 407 409 408 408 409 410 409 411 410 412 413 414 413 415 414 414 415 416 415 417 416 416 417 418 417 419 418 420 421 422 421 423 422 422 423 424 423 425 424 424 425 426 425 427 426 428 429 430 429 431 430 430 431 432 431 433 432 432 433 434 433 435 434 436 437 438 437 439 438 438 439 440 439 441 440 440 441 442 441 443 442 444 445 446 445 447 446 446 447 448 447 449 448 448 449 450 451 452 453 452 454 453 453 454 455 454 456 455 455 456 457 458 459 460 459 461 460 460 461 462 461 463 462 462 463 464 465 466 467 466 468 467 467 468 469 468 470 469 469 470 471 472 473 474 473 475 474 474 475 476 475 477 476 478 479 480 479 481 480 480 481 482 481 483 482 484 485 486 485 487 486 486 487 488 487 489 488 490 491 492 491 493 492 492 493 494 493 495 494 496 497 498 497 499 498 498 499 500 499 501 500 502 503 504 503 505 504 504 505 506 505 507 506 508 509 510 509 511 510 510 511 512 511 513 512 514 515 516 515 517 516 516 517 518 517 519 518 520 521 522 521 523 522 522 523 524 525 526 527 526 528 527 527 528 529 530 531 532 531 533 532 532 533 534 535 536 537 536 538 537 537 538 539 540 541 542 541 543 542 542 543 544 545 546 547 546 548 547 547 548 549 550 551 552 551 553 552 552 553 554 555 556 557 556 558 557 557 558 559 560 561 562 561 563 562 562 563 564 565 566 567 566 568 567 567 568 569 570 571 572 571 573 572 572 573 574 575 576 577 576 578 577 577 578 579 580 581 582 581 583 582 582 583 584 585 586 587 586 588 587 587 588 589 590 591 592 591 593 592 592 593 594 595 596 597 596 598 597 597 598 599 600 601 602 601 603 602 602 603 604 605 606 607 606 608 607 607 608 609 610 611 612 611 613 612 612 613 614 615 616 617 616 618 617 617 618 619 620 621 622 621 623 622 622 623 624 625 626 627 626 628 627 629 630 631 630 632 631 633 634 635 634 636 635 637 638 639 638 640 639 641 642 643 642 644 643 645 646 647 646 648 647 649 650 651 650 652 651 653 654 655 654 656 655 657 658 659 658 660 659 661 662 663 662 664 663 665 666 667 666 668 667 669 670 671 670 672 671 673 674 675 674 676 675 677 678 679 678 680 679 681 682 683 682 684 683 685 686 687 686 688 687 689 690 691 690 692 691 693 694 695 694 696 695 697 698 699 698 700 699 701 702 703 702 704 703 705 706 707 706 708 707 709 710 711 710 712 711 713 714 715 714 716 715 717 718 719 718 720 719 721 722 723 722 724 723 725 726 727 726 728 727 729 730 731 730 732 731 733 734 735 734 736 735 737 738 739 738 740 739 741 742 743 742 744 743 745 746 747 746 748 747 749 750 751 750 752 751 753 754 755 754 756 755 757 758 759 758 760 759 761 762 763 764 765 766 767 768 769 770 771 772 773 774 775 776 777 778 779 780 781 782 783 784 785 786 787 788 789 790 791 792 793 794 795 796 797 798 799 800 801 802 803 804 805 806 807 808 809 810 811 </p>
        </polylist>
      </mesh>
    </geometry>
  </library_geometries>
  <library_controllers>
    <controller id="controller">
      <skin source="#geometry">
        <source id="controller-joints">
          <Name_array id="controller-joints-array" count="41">joint0 joint1 joint2 joint3 joint4 joint5 joint6 joint7 joint8 joint9 joint10 joint11 joint12 joint13 joint14 joint15 joint16 joint17 joint18 joint19 joint20 joint21 joint22 joint23 joint24 joint25 joint26 joint27 joint28 joint29 joint30 joint31 joint32 joint33 joint34 joint35 joint36 joint37 joint38 joint39 joint40 </Name_array>
          <technique_common>
            <accessor source="#controller-joints-array" count="41">
              <param name="JOINT" type="Name"/>
            </accessor>
          </technique_common>
        </source>
        <source id="controller-bind-poses">
          <float_array id="controller-bind-poses-array" count="656">1 0 0 0 0 1 0 0 0 0 1 0 0 0 0 1 1 0 0 0 0 1 0 0 0 0 1 0 0 0 0 1 0 1 0 -5.148193359375 0 0 1 0 1 0 0 0 0 0 0 1 0 0.9874237611596308 -0.15769487013822533 -5.581442262839762 0 0.15769487013822533 0.9874237611596308 -0.9598545616302809 1 0 0 0 0 0 0 1 0 0.990978947612974 -0.13304965456157453 -6.464003358201016 0 0.13304965456157453 0.990978947612974 -0.7990808160930714 1 0 0 0 0 0 0 1 -0.9946067395689703 -0.08067684123369548 -0.0649829431038433 0.16847877935938957 -0.07148198173596905 0.9883245152336537 -0.13269423034968678 -7.560328870080515 0.07500951904682733 -0.12735624828213296 -0.9889899664414196 0.7791732513894536 0 0 0 1 -0.9422686049960941 -0.3185513969013969 -0.10403416817715092 1.2822690457073718 -0.3025157558783862 0.9418974867602208 -0.14419683545664244 -7.438656121866664 0.14394982479917767 -0.10446092452558146 -0.9840638238500031 0.667901459503159 0 0 0 0.9999999999999998 -0.9529101525842912 -0.2955710914725513 0.06835233490570514 -0.36833047513793027 -0.30251575587838625 0.9418974867602208 -0.14419683545664247 -7.438656121866665 -0.021789944499256125 -0.15816137652299594 -0.9871410293434947 0.6132477467282774 0 0 0 1 -0.9512779305729213 -0.3082634433105389 -0.01795570826130581 -1.7610010693222047 -0.30251575587838625 0.9418974867602208 -0.1441968354566425 -7.438656121866667 0.061361423663132304 -0.13180856592557083 -0.9894410461621737 0.769740233418395 0 0 0 1 -0.4298271477792555 -0.5061288131199051 0.7475179315361047 1.7125762412657592 0.6348833053690665 0.41944472572939784 0.6489857744495684 -0.13288171019485492 -0.6422472697517497 0.7532495704627021 0.14105001538494458 -7.402635925361952 0 0 0 1 -0.6400898383341912 -0.6281572945986136 0.44237764150364256 1.2942067392665966 0.4221620618715692 0.1939014577039074 0.8856901417499047 0.3921084766048175 -0.6422472697517497 0.753249570462702 0.14105001538494458 -7.40263592536195 0 0 0 0.9999999999999999 -0.9025900990543206 -0.42959823186688345 -0.03487254837391297 -1.3554277233356855 -0.42070569597039176 0.8952167523514346 -0.14519802269205825 -7.618125680070471 0.09360238108627428 -0.11658112489092914 -0.9889223388755609 0.9601144499606048 0 0 0 1 -0.8537527078343939 -0.5205350903367136 -0.019545618161610833 -0.8275138188046894 -0.5124602201620057 0.845493209145238 -0.14803070198862997 -7.745996854736929 0.09360238108627428 -0.11658112489092916 -0.9889223388755608 0.9601144499606047 0 0 0 0.9999999999999998 -0.8403946471804236 -0.5377004993226968 -0.07026987814087901 -0.4092388774892987 -0.5420725421009472 0.8367898058941484 0.07453192404933298 -7.724945890770555 0.01857234700674045 0.10046216033872246 -0.9947034522629877 -1.0454023440922733 0 0 0 1 -0.7243552518282754 -0.6845100701915252 -0.0829519199598365 0.8173962049364338 -0.6894783548941626 0.7216304277450086 0.06009556216123085 -7.707770942301148 0.01857234700674047 0.10046216033872246 -0.9947034522629876 -1.0454023440922733 0 0 0 1 -0.900841072787874 -0.40690375321457056 0.15268909083234633 -1.5243042939941094 -0.427200552408214 0.8930766248612999 -0.13975100624604805 -7.601508297480995 -0.07942561558142795 -0.19112202801838804 -0.9783928153294725 0.8923742889064634 0 0 0 0.9999999999999998 -0.8087703821475949 -0.561486776247952 0.17540575811652465 -0.36780867702228415 -0.5828502222519891 0.8048006058596179 -0.10985849108403688 -7.795471930374447 -0.07942561558142797 -0.19112202801838807 -0.9783928153294725 0.8923742889064631 0 0 0 1 -0.6773247784421366 -0.7257510296119092 -0.11891450001482506 2.737858187217946 -0.7335527411311746 0.6785114443050745 0.03421405248333673 -5.23025738119838 0.056004323248639507 0.11043866458507252 -0.9923815140365261 -0.683250203132082 0 0 0 0.9999999999999998 -0.9946067395689703 0.08067684123369548 0.0649829431038433 -0.16847877935938957 -0.07148198173596905 -0.9883245152336537 0.13269423034968678 7.560328870080515 0.07500951904682733 0.12735624828213296 0.9889899664414196 -0.7791732513894536 0 0 0 1 -0.6773247784421366 0.7257510296119092 0.11891450001482506 -2.737858187217946 -0.7335527411311746 -0.6785114443050745 -0.03421405248333673 5.23025738119838 0.056004323248639507 -0.11043866458507252 0.9923815140365261 0.683250203132082 0 0 0 0.9999999999999998 -0.9422686049960941 0.3185513969013969 0.10403416817715092 -1.2822690457073718 -0.3025157558783862 -0.9418974867602208 0.14419683545664244 7.438656121866664 0.14394982479917767 0.10446092452558146 0.9840638238500031 -0.667901459503159 0 0 0 0.9999999999999998 -0.9529101525842912 0.2955710914725513 -0.06835233490570514 0.36833047513793027 -0.30251575587838625 -0.9418974867602208 0.14419683545664247 7.438656121866665 -0.021789944499256125 0.15816137652299594 0.9871410293434947 -0.6132477467282774 0 0 0 1 -0.1676377966242349 0.9799010578641232 0.107732397851611 -4.681450502593723 0.0009659882994896121 -0.10903259938964326 0.9939240088702436 0.42853356331907233 0.9858417458558576 0.16682222812040892 0.017344344053634417 -1.4291408195976139 0 0 0 1 -0.1666456948043311 0.9634245303642437 0.20980790677620528 -2.696257674248958 0.018273887328655255 -0.2096529463534742 0.9775071172720134 0.7107978575263204 0.9858417458558576 0.16682222812040892 0.017344344053634417 -1.4291408195976136 0 0 0 1 -0.1676377966242349 -0.9799010578641232 -0.107732397851611 4.681450502593723 0.0009659882994896121 0.10903259938964326 -0.9939240088702436 -0.42853356331907233 0.9858417458558576 -0.16682222812040892 -0.017344344053634417 1.4291408195976139 0 0 0 1 -0.1666456948043311 -0.9634245303642437 -0.20980790677620528 2.696257674248958 0.018273887328655255 0.2096529463534742 -0.9775071172720134 -0.7107978575263204 0.9858417458558576 -0.16682222812040892 -0.017344344053634417 1.4291408195976136 0 0 0 1 0 0.9928085885839892 0.11945781256064662 -8.042918306996185 0 -0.11945781256064662 0.9928085885839892 1.2557374931301046 1 0 0 0 0 0 0 1 0 0.9998849117708203 0.002053726078329408 -8.692863275104335 0 -0.002053726078329408 0.9998849117708203 0.23653725086915534 1 0 0 0 0 0 0 1 0.0000913016140748018 1.0000429325203066 -0.00012049142187195661 -0.7792258166652702 0.011718178207042303 0.00007404926926641901 0.9997729298166986 0.5691506347756119 0.9998916737663484 0.00006583741789744783 -0.011604775039273056 -1.334830155856569 0 0 0 1 -0.04314299878469033 0.21544536205761625 -0.9753728309689795 0.27048476148528916 -0.1638649893045275 0.961799459436695 0.21935439598348386 0.028726313728303195 0.9854326933859958 0.16948843162423186 -0.006126313729525331 -1.408399790297923 0 0 0 1 0.0000913016140748018 -1.0000429325203066 0.00012049142187195661 0.7792258166652702 0.011718178207042303 -0.00007404926926641901 -0.9997729298166986 -0.5691506347756119 0.9998916737663484 -0.00006583741789744783 0.011604775039273056 1.334830155856569 0 0 0 1 -0.04314299878469033 -0.21544536205761625 0.9753728309689795 -0.27048476148528916 -0.1638649893045275 -0.961799459436695 -0.21935439598348386 -0.028726313728303195 0.9854326933859958 -0.16948843162423186 0.006126313729525331 1.408399790297923 0 0 0 1 -0.9512779305729213 0.3082634433105389 0.01795570826130581 1.7610010693222047 -0.30251575587838625 -0.9418974867602208 0.1441968354566425 7.438656121866667 0.061361423663132304 0.13180856592557083 0.9894410461621737 -0.769740233418395 0 0 0 1 -0.8403946471804236 0.5377004993226968 0.07026987814087901 0.4092388774892987 -0.5420725421009472 -0.8367898058941484 -0.07453192404933298 7.724945890770555 0.01857234700674045 -0.10046216033872246 0.9947034522629877 1.0454023440922733 0 0 0 1 -0.7243552518282754 0.6845100701915252 0.0829519199598365 -0.8173962049364338 -0.6894783548941626 -0.7216304277450086 -0.06009556216123085 7.707770942301148 0.01857234700674047 -0.10046216033872246 0.9947034522629876 1.0454023440922733 0 0 0 1 -0.9025900990543206 0.42959823186688345 0.03487254837391297 1.3554277233356855 -0.42070569597039176 -0.8952167523514346 0.14519802269205825 7.618125680070471 0.09360238108627428 0.11658112489092914 0.9889223388755609 -0.9601144499606048 0 0 0 1 -0.8537527078343939 0.5205350903367136 0.019545618161610833 0.8275138188046894 -0.5124602201620057 -0.845493209145238 0.14803070198862997 7.745996854736929 0.09360238108627428 0.11658112489092916 0.9889223388755608 -0.9601144499606047 0 0 0 0.9999999999999998 -0.4298271477792555 0.5061288131199051 -0.7475179315361047 -1.7125762412657592 0.6348833053690665 -0.41944472572939784 -0.6489857744495684 0.13288171019485492 -0.6422472697517497 -0.7532495704627021 -0.14105001538494458 7.402635925361952 0 0 0 1 -0.6400898383341912 0.6281572945986136 -0.44237764150364256 -1.2942067392665966 0.4221620618715692 -0.1939014577039074 -0.8856901417499047 -0.3921084766048175 -0.6422472697517497 -0.753249570462702 -0.14105001538494458 7.40263592536195 0 0 0 0.9999999999999999 -0.900841072787874 0.40690375321457056 -0.15268909083234633 1.5243042939941094 -0.427200552408214 -0.8930766248612999 0.13975100624604805 7.601508297480995 -0.07942561558142795 0.19112202801838804 0.9783928153294725 -0.8923742889064634 0 0 0 0.9999999999999998 -0.8087703821475949 0.561486776247952 -0.17540575811652465 0.36780867702228415 -0.5828502222519891 -0.8048006058596179 0.10985849108403688 7.795471930374447 -0.07942561558142797 0.19112202801838807 0.9783928153294725 -0.8923742889064631 0 0 0 1 </float_array>
          <technique_common>
            <accessor source="#controller-bind-poses-array" count="41" stride="16">
              <param name="TRANSFORM" type="float4x4"/>
            </accessor>
          </technique_common>
        </source>
        <source id="controller-weights">
          <float_array id="controller-weights-array" count="1">1 </float_array>
          <technique_common>
            <accessor source="#controller-weights-array" count="1">
              <param name="WEIGHT" type="float"/>
            </accessor>
          </technique_common>
        </source>
        <joints>
          <input semantic="JOINT" source="#controller-joints"/>
          <input semantic="INV_BIND_MATRIX" source="#controller-bind-poses"/>
        </joints>
        <vertex_weights count="812">
          <input semantic="JOINT" source="#controller-joints" offset="0"/>
          <input semantic="WEIGHT" source="#controller-weights" offset="1"/>
          <vcount>1 1 1 1 1 1 1 1 1 1 1 1 1 1 1 1 1 1 1 1 1 1 1 1 1 1 1 1 1 1 1 1 1 1 1 1 1 1 1 1 1 1 1 1 1 1 1 1 1 1 1 1 1 1 1 1 1 1 1 1 1 1 1 1 1 1 1 1 1 1 1 1 1 1 1 1 1 1 1 1 1 1 1 1 1 1 1 1 1 1 1 1 1 1 1 1 1 1 1 1 1 1 1 1 1 1 1 1 1 1 1 1 1 1 1 1 1 1 1 1 1 1 1 1 1 1 1 1 1 1 1 1 1 1 1 1 1 1 1 1 1 1 1 1 1 1 1 1 1 1 1 1 1 1 1 1 1 1 1 1 1 1 1 1 1 1 1 1 1 1 1 1 1 1 1 1 1 1 1 1 1 1 1 1 1 1 1 1 1 1 1 1 1 1 1 1 1 1 1 1 1 1 1 1 1 1 1 1 1 1 1 1 1 1 1 1 1 1 1 1 1 1 1 1 1 1 1 1 1 1 1 1 1 1 1 1 1 1 1 1 1 1 1 1 1 1 1 1 1 1 1 1 1 1 1 1 1 1 1 1 1 1 1 1 1 1 1 1 1 1 1 1 1 1 1 1 1 1 1 1 1 1 1 1 1 1 1 1 1 1 1 1 1 1 1 1 1 1 1 1 1 1 1 1 1 1 1 1 1 1 1 1 1 1 1 1 1 1 1 1 1 1 1 1 1 1 1 1 1 1 1 1 1 1 1 1 1 1 1 1 1 1 1 1 1 1 1 1 1 1 1 1 1 1 1 1 1 1 1 1 1 1 1 1 1 1 1 1 1 1 1 1 1 1 1 1 1 1 1 1 1 1 1 1 1 1 1 1 1 1 1 1 1 1 1 1 1 1 1 1 1 1 1 1 1 1 1 1 1 1 1 1 1 1 1 1 1 1 1 1 1 1 1 1 1 1 1 1 1 1 1 1 1 1 1 1 1 1 1 1 1 1 1 1 1 1 1 1 1 1 1 1 1 1 1 1 1 1 1 1 1 1 1 1 1 1 1 1 1 1 1 1 1 1 1 1 1 1 1 1 1 1 1 1 1 1 1 1 1 1 1 1 1 1 1 1 1 1 1 1 1 1 1 1 1 1 1 1 1 1 1 1 1 1 1 1 1 1 1 1 1 1 1 1 1 1 1 1 1 1 1 1 1 1 1 1 1 1 1 1 1 1 1 1 1 1 1 1 1 1 1 1 1 1 1 1 1 1 1 1 1 1 1 1 1 1 1 1 1 1 1 1 1 1 1 1 1 1 1 1 1 1 1 1 1 1 1 1 1 1 1 1 1 1 1 1 1 1 1 1 1 1 1 1 1 1 1 1 1 1 1 1 1 1 1 1 1 1 1 1 1 1 1 1 1 1 1 1 1 1 1 1 1 1 1 1 1 1 1 1 1 1 1 1 1 1 1 1 1 1 1 1 1 1 1 1 1 1 1 1 1 1 1 1 1 1 1 1 1 1 1 1 1 1 1 1 1 1 1 1 1 1 1 1 1 1 1 1 1 1 1 1 1 1 1 1 1 1 1 1 1 1 1 1 1 1 1 1 1 1 1 1 1 1 1 1 1 1 1 1 1 1 1 1 1 1 1 1 1 1 1 1 1 1 1 1 1 1 1 1 1 1 1 1 1 1 1 1 1 1 1 1 1 1 1 1 1 1 1 1 1 1 1 1 1 1 1 1 1 1 1 1 1 1 1 1 1 1 1 1 1 1 1 1 1 1 1 1 1 1 1 1 1 1 1 1 1 1 1 1 1 1 1 1 1 1 1 1 1 1 1 1 </vcount>
          <v>6 0 6 0 6 0 6 0 6 0 6 0 6 0 6 0 6 0 6 0 7 0 10 0 7 0 8 0 7 0 8 0 8 0 8 0 8 0 12 0 12 0 12 0 12 0 7 0 7 0 7 0 7 0 7 0 7 0 7 0 7 0 7 0 6 0 6 0 10 0 8 0 8 0 8 0 8 0 11 0 11 0 12 0 8 0 12 0 14 0 14 0 14 0 14 0 14 0 14 0 14 0 14 0 12 0 12 0 12 0 12 0 12 0 12 0 12 0 8 0 7 0 7 0 7 0 7 0 7 0 6 0 6 0 6 0 6 0 6 0 6 0 6 0 6 0 10 0 10 0 10 0 10 0 10 0 7 0 10 0 8 0 8 0 8 0 8 0 16 0 12 0 12 0 12 0 11 0 8 0 16 0 16 0 16 0 16 0 16 0 16 0 16 0 7 0 7 0 7 0 7 0 7 0 7 0 8 0 7 0 10 0 7 0 16 0 16 0 16 0 16 0 8 0 8 0 14 0 11 0 14 0 8 0 7 0 7 0 7 0 7 0 6 0 6 0 7 0 7 0 7 0 6 0 7 0 6 0 10 0 10 0 10 0 8 0 8 0 8 0 8 0 14 0 8 0 8 0 8 0 11 0 14 0 8 0 14 0 14 0 16 0 16 0 16 0 8 0 8 0 16 0 11 0 16 0 6 0 6 0 6 0 6 0 8 0 8 0 8 0 8 0 10 0 10 0 8 0 10 0 7 0 7 0 7 0 6 0 6 0 6 0 14 0 14 0 14 0 8 0 8 0 11 0 2 0 4 0 17 0 5 0 6 0 2 0 19 0 4 0 18 0 21 0 20 0 19 0 18 0 6 0 7 0 17 0 20 0 20 0 20 0 20 0 20 0 20 0 20 0 20 0 20 0 20 0 23 0 23 0 23 0 23 0 23 0 23 0 23 0 23 0 23 0 23 0 25 0 25 0 25 0 25 0 25 0 25 0 25 0 25 0 25 0 25 0 22 0 22 0 22 0 22 0 22 0 22 0 22 0 22 0 22 0 22 0 24 0 24 0 24 0 24 0 24 0 24 0 24 0 24 0 24 0 24 0 27 0 27 0 27 0 27 0 27 0 27 0 27 0 27 0 27 0 27 0 23 0 23 0 23 0 23 0 23 0 23 0 23 0 23 0 25 0 25 0 25 0 25 0 25 0 25 0 25 0 25 0 29 0 29 0 29 0 29 0 28 0 28 0 2 0 2 0 2 0 2 0 2 0 2 0 30 0 30 0 31 0 31 0 31 0 31 0 27 0 27 0 27 0 27 0 27 0 27 0 27 0 27 0 27 0 27 0 27 0 27 0 27 0 27 0 27 0 27 0 27 0 27 0 27 0 27 0 27 0 27 0 27 0 27 0 32 0 32 0 32 0 34 0 34 0 34 0 34 0 34 0 34 0 34 0 35 0 32 0 36 0 36 0 36 0 36 0 36 0 36 0 36 0 32 0 32 0 32 0 32 0 21 0 32 0 21 0 38 0 21 0 38 0 18 0 4 0 18 0 4 0 4 0 4 0 4 0 4 0 2 0 2 0 2 0 2 0 2 0 2 0 18 0 4 0 18 0 4 0 18 0 4 0 18 0 4 0 4 0 5 0 4 0 5 0 4 0 21 0 21 0 21 0 21 0 21 0 21 0 21 0 21 0 21 0 20 0 27 0 27 0 27 0 27 0 27 0 4 0 27 0 4 0 4 0 2 0 2 0 2 0 2 0 4 0 2 0 4 0 4 0 4 0 38 0 32 0 32 0 32 0 32 0 35 0 40 0 40 0 40 0 21 0 21 0 21 0 21 0 21 0 21 0 20 0 20 0 27 0 27 0 27 0 27 0 27 0 27 0 27 0 27 0 32 0 35 0 35 0 36 0 36 0 36 0 36 0 36 0 6 0 5 0 6 0 5 0 6 0 5 0 6 0 5 0 28 0 28 0 28 0 28 0 29 0 29 0 29 0 29 0 4 0 2 0 4 0 2 0 2 0 2 0 2 0 30 0 31 0 30 0 31 0 30 0 31 0 30 0 32 0 32 0 32 0 40 0 40 0 40 0 40 0 4 0 2 0 2 0 2 0 2 0 2 0 2 0 4 0 4 0 4 0 4 0 5 0 5 0 21 0 21 0 21 0 21 0 21 0 21 0 4 0 2 0 4 0 4 0 5 0 5 0 32 0 40 0 40 0 40 0 40 0 40 0 40 0 35 0 32 0 36 0 36 0 36 0 38 0 38 0 38 0 32 0 32 0 32 0 20 0 20 0 20 0 20 0 20 0 18 0 27 0 27 0 27 0 27 0 27 0 27 0 24 0 25 0 24 0 25 0 25 0 31 0 31 0 31 0 31 0 31 0 4 0 4 0 4 0 4 0 18 0 2 0 22 0 2 0 22 0 22 0 20 0 20 0 20 0 18 0 18 0 20 0 18 0 20 0 18 0 18 0 2 0 2 0 2 0 2 0 2 0 28 0 23 0 28 0 23 0 23 0 24 0 2 0 24 0 2 0 2 0 30 0 30 0 25 0 30 0 25 0 23 0 23 0 23 0 23 0 28 0 21 0 20 0 21 0 20 0 20 0 27 0 27 0 27 0 27 0 27 0 21 0 38 0 21 0 32 0 21 0 28 0 28 0 28 0 28 0 29 0 25 0 30 0 25 0 30 0 30 0 22 0 23 0 22 0 23 0 23 0 4 0 4 0 4 0 5 0 5 0 20 0 20 0 20 0 18 0 18 0 30 0 30 0 30 0 30 0 30 0 38 0 38 0 38 0 38 0 38 0 24 0 24 0 25 0 25 0 24 0 25 0 24 0 24 0 18 0 18 0 4 0 4 0 24 0 24 0 2 0 2 0 24 0 2 0 24 0 24 0 6 0 6 0 5 0 5 0 6 0 6 0 5 0 5 0 22 0 22 0 23 0 23 0 20 0 20 0 21 0 21 0 22 0 23 0 22 0 22 0 28 0 28 0 28 0 28 0 28 0 28 0 28 0 28 0 29 0 29 0 29 0 28 0 23 0 23 0 28 0 28 0 28 0 23 0 28 0 28 0 32 0 32 0 32 0 35 0 27 0 27 0 27 0 27 0 27 0 27 0 27 0 27 0 4 0 4 0 5 0 5 0 34 0 34 0 34 0 32 0 34 0 35 0 32 0 32 0 2 0 2 0 2 0 2 0 4 0 27 0 4 0 4 0 22 0 22 0 2 0 2 0 4 0 4 0 4 0 5 0 2 0 22 0 2 0 2 0 25 0 30 0 25 0 25 0 18 0 20 0 18 0 20 0 30 0 30 0 30 0 30 0 30 0 30 0 30 0 30 0 27 0 27 0 27 0 27 0 25 0 25 0 25 0 25 0 27 0 27 0 27 0 27 0 27 0 4 0 27 0 27 0 20 0 20 0 20 0 20 0 32 0 32 0 32 0 32 0 38 0 38 0 32 0 38 0 29 0 28 0 28 0 22 0 2 0 22 0 24 0 25 0 25 0 22 0 23 0 23 0 27 0 27 0 27 0 2 0 24 0 2 0 30 0 30 0 30 0 2 0 2 0 2 0 40 0 40 0 40 0 27 0 27 0 27 0 34 0 34 0 34 0 21 0 21 0 21 0 36 0 36 0 36 0 </v>
        </vertex_weights>
      </skin>
    </controller>
  </library_controllers>
  <library_visual_scenes>
    <visual_scene id="scene0" name="spa">
      <node id="joint0" sid="joint0" name="world_root" type="JOINT">
        <matrix sid="transform">1 0 0 0 0 1 0 0 0 0 1 0 0 0 0 1</matrix>
        <node id="joint1" sid="joint1" name="spd_AllExport" type="JOINT">
          <matrix sid="transform">1 0 0 0 0 1 0 0 0 0 1 0 0 0 0 1</matrix>
          <node id="joint2" sid="joint2" name="spd_Root_M" type="JOINT">
            <matrix sid="transform">0 0 1 0 1 0 0 5.148193359375 0 1 0 0 0 0 0 1</matrix>
            <node id="joint3" sid="joint3" name="spd_BackA_M" type="JOINT">
              <matrix sid="transform">0.987548828125 0.15771484375 0 0.51513671875 -0.15771484375 0.987548828125 0 0.067626953125 0 0 1 0 0 0 0 1</matrix>
              <node id="joint4" sid="joint4" name="spd_Chest_M" type="JOINT">
                <matrix sid="transform">0.999755859375 -0.02490234375 0 0.861083984375 0.02490234375 0.999755859375 0 0 0 0 1 0 0 0 0 1</matrix>
                <node id="joint5" sid="joint5" name="spd_Scapula_R" type="JOINT">
                  <matrix sid="transform">-0.0712890625 0.99755859375 0.00537109375 1.085693359375 -0.0751953125 0 -0.9970703125 -0.009521484375 -0.99462890625 -0.071533203125 0.074951171875 -0.431640625 0 0 0 1</matrix>
                  <node id="joint6" sid="joint6" name="spd_Shoulder_R" type="JOINT">
                    <matrix sid="transform">0.969482421875 0.234375 -0.07080078125 0.716064453125 -0.233642578125 0.97216796875 0.01708984375 -0.04052734375 0.07275390625 0 0.997314453125 0.019775390625 0 0 0 1</matrix>
                    <node id="joint7" sid="joint7" name="spd_Elbow_R" type="JOINT">
                      <matrix sid="transform">0.98486328125 0 0.173583984375 1.53857421875 0 1 0 0 -0.173583984375 0 0.98486328125 0 0 0 0 1</matrix>
                      <node id="joint8" sid="joint8" name="spd_Wrist_R" type="JOINT">
                        <matrix sid="transform">0.99609375 0 -0.087158203125 1.452880859375 0 1 0 0 0.087158203125 0 0.99609375 0 0 0 0 1</matrix>
                        <node id="joint9" sid="joint9" name="spd_Thum1_R" type="JOINT">
                          <matrix sid="transform">0.551513671875 -0.74462890625 0.3759765625 -0.021240234375 -0.454833984375 0.109619140625 0.8837890625 -0.102783203125 -0.699462890625 -0.658447265625 -0.2783203125 -0.18017578125 0 0 0 1</matrix>
                          <node id="joint10" sid="joint10" name="spd_Thum2_R" type="JOINT">
                            <matrix sid="transform">0.923828125 0.382568359375 0 0.366943359375 -0.382568359375 0.923828125 0 0 0 0 1 0 0 0 0 1</matrix>
                          </node>
                        </node>
                        <node id="joint11" sid="joint11" name="spd_MidFing1_R" type="JOINT">
                          <matrix sid="transform">0.9912109375 0.126708984375 -0.035400390625 0.581787109375 -0.126708984375 0.991943359375 0.004638671875 -0.05810546875 0.03564453125 0 0.999267578125 -0.141357421875 0 0 0 1</matrix>
                          <node id="joint12" sid="joint12" name="spd_MidFing2_R" type="JOINT">
                            <matrix sid="transform">0.99462890625 0.104248046875 0 0.275146484375 -0.104248046875 0.99462890625 0 0 0 0 1 0 0 0 0 1</matrix>
                          </node>
                        </node>
                        <node id="joint13" sid="joint13" name="spd_Ring1_R" type="JOINT">
                          <matrix sid="transform">0.966064453125 0.256103515625 -0.031005859375 0.580322265625 -0.242431640625 0.94189453125 0.232666015625 -0.0185546875 0.088623046875 -0.21728515625 0.97216796875 0.143798828125 0 0 0 1</matrix>
                          <node id="joint14" sid="joint14" name="spd_Ring2_R" type="JOINT">
                            <matrix sid="transform">0.982421875 0.186767578125 0 0.227294921875 -0.186767578125 0.982421875 0 0 0 0 1 0 0 0 0 1</matrix>
                          </node>
                        </node>
                        <node id="joint15" sid="joint15" name="spd_Index1_R" type="JOINT">
                          <matrix sid="transform">0.979248046875 0.133544921875 0.152099609375 0.611083984375 -0.1328125 0.990966796875 -0.014892578125 -0.094970703125 -0.152587890625 -0.005615234375 0.98828125 -0.387451171875 0 0 0 1</matrix>
                          <node id="joint16" sid="joint16" name="spd_Index2_R" type="JOINT">
                            <matrix sid="transform">0.983642578125 0.1806640625 0 0.245849609375 -0.1806640625 0.983642578125 0 0 0 0 1 0 0 0 0 1</matrix>
                          </node>
                        </node>
                      </node>
                    </node>
                  </node>
                  <node id="joint17" sid="joint17" name="spd_joint1_R" type="JOINT">
                    <matrix sid="transform">0.739990234375 0.672607421875 0 1.660400390625 -0.653564453125 0.718994140625 0.23681640625 -1.8486328125 0.159423828125 -0.17529296875 0.971435546875 0.089599609375 0 0 0 1</matrix>
                  </node>
                </node>
                <node id="joint18" sid="joint18" name="spd_Scapula_L" type="JOINT">
                  <matrix sid="transform">0.0712890625 -0.99755859375 -0.00537109375 1.085693359375 0.0751953125 0 0.9970703125 -0.009521484375 -0.99462890625 -0.071533203125 0.074951171875 0.431640625 0 0 0 1</matrix>
                  <node id="joint19" sid="joint19" name="spd_joint1_L" type="JOINT">
                    <matrix sid="transform">0.739990234375 0.672607421875 0 -1.660400390625 -0.653564453125 0.718994140625 0.23681640625 1.8486328125 0.159423828125 -0.17529296875 0.971435546875 -0.089599609375 0 0 0 1</matrix>
                  </node>
                  <node id="joint20" sid="joint20" name="spd_Shoulder_L" type="JOINT">
                    <matrix sid="transform">0.969482421875 0.234375 -0.07080078125 -0.716064453125 -0.233642578125 0.97216796875 0.01708984375 0.04052734375 0.07275390625 0 0.997314453125 -0.019775390625 0 0 0 1</matrix>
                    <node id="joint21" sid="joint21" name="spd_Elbow_L" type="JOINT">
                      <matrix sid="transform">0.98486328125 0 0.173583984375 -1.53857421875 0 1 0 0 -0.173583984375 0 0.98486328125 0 0 0 0 1</matrix>
                      <node id="joint32" sid="joint32" name="spd_Wrist_L" type="JOINT">
                        <matrix sid="transform">0.99609375 0 -0.087158203125 -1.452880859375 0 1 0 0 0.087158203125 0 0.99609375 0 0 0 0 1</matrix>
                        <node id="joint33" sid="joint33" name="spd_Ring1_L" type="JOINT">
                          <matrix sid="transform">0.966064453125 0.256103515625 -0.031005859375 -0.580322265625 -0.242431640625 0.94189453125 0.232666015625 0.0185546875 0.088623046875 -0.21728515625 0.97216796875 -0.143798828125 0 0 0 1</matrix>
                          <node id="joint34" sid="joint34" name="spd_Ring2_L" type="JOINT">
                            <matrix sid="transform">0.982421875 0.186767578125 0 -0.227294921875 -0.186767578125 0.982421875 0 0 0 0 1 0 0 0 0 1</matrix>
                          </node>
                        </node>
                        <node id="joint35" sid="joint35" name="spd_MidFing1_L" type="JOINT">
                          <matrix sid="transform">0.9912109375 0.126708984375 -0.035400390625 -0.581787109375 -0.126708984375 0.991943359375 0.004638671875 0.05810546875 0.03564453125 0 0.999267578125 0.141357421875 0 0 0 1</matrix>
                          <node id="joint36" sid="joint36" name="spd_MidFing2_L" type="JOINT">
                            <matrix sid="transform">0.99462890625 0.104248046875 0 -0.275146484375 -0.104248046875 0.99462890625 0 0 0 0 1 0 0 0 0 1</matrix>
                          </node>
                        </node>
                        <node id="joint37" sid="joint37" name="spd_Thum1_L" type="JOINT">
                          <matrix sid="transform">0.551513671875 -0.74462890625 0.3759765625 0.021240234375 -0.454833984375 0.109619140625 0.8837890625 0.102783203125 -0.699462890625 -0.658447265625 -0.2783203125 0.18017578125 0 0 0 1</matrix>
                          <node id="joint38" sid="joint38" name="spd_Thum2_L" type="JOINT">
                            <matrix sid="transform">0.923828125 0.382568359375 0 -0.366943359375 -0.382568359375 0.923828125 0 0 0 0 1 0 0 0 0 1</matrix>
                          </node>
                        </node>
                        <node id="joint39" sid="joint39" name="spd_Index1_L" type="JOINT">
                          <matrix sid="transform">0.979248046875 0.133544921875 0.152099609375 -0.611083984375 -0.1328125 0.990966796875 -0.014892578125 0.094970703125 -0.152587890625 -0.005615234375 0.98828125 0.387451171875 0 0 0 1</matrix>
                          <node id="joint40" sid="joint40" name="spd_Index2_L" type="JOINT">
                            <matrix sid="transform">0.983642578125 0.1806640625 0 -0.245849609375 -0.1806640625 0.983642578125 0 0 0 0 1 0 0 0 0 1</matrix>
                          </node>
                        </node>
                      </node>
                    </node>
                  </node>
                </node>
                <node id="joint26" sid="joint26" name="spd_Neck_M" type="JOINT">
                  <matrix sid="transform">0.968017578125 -0.25048828125 0 1.63623046875 0.25048828125 0.968017578125 0 0 0 0 1 0 0 0 0 1</matrix>
                  <node id="joint27" sid="joint27" name="spd_Head_M" type="JOINT">
                    <matrix sid="transform">0.9931640625 0.117431640625 0 0.562744140625 -0.117431640625 0.9931640625 0 0 0 0 1 0 0 0 0 1</matrix>
                  </node>
                </node>
              </node>
            </node>
            <node id="joint22" sid="joint22" name="spd_Hip_L" type="JOINT">
              <matrix sid="transform">0.97998046875 -0.109130859375 0.166748046875 -0.275390625 0.107666015625 0.994140625 0.017333984375 0.102783203125 -0.167724609375 0.0009765625 0.98583984375 0.623291015625 0 0 0 1</matrix>
              <node id="joint23" sid="joint23" name="spd_Knee_L" type="JOINT">
                <matrix sid="transform">0.99462890625 -0.103271484375 0 -1.92626953125 0.103271484375 0.99462890625 0 0 0 0 1 0 0 0 0 1</matrix>
                <node id="joint28" sid="joint28" name="spd_Ankle_L" type="JOINT">
                  <matrix sid="transform">0.96337890625 0.2080078125 -0.169189453125 -2.289794921875 -0.209716796875 0.977783203125 0.0068359375 0 0.166748046875 0.02880859375 0.985595703125 0 0 0 0 1</matrix>
                  <node id="joint29" sid="joint29" name="spd_MidToe1L" type="JOINT">
                    <matrix sid="transform">0.21533203125 0.961669921875 0.16943359375 -0.62646484375 -0.97607421875 0.2177734375 0.00537109375 0.83447265625 -0.03173828125 -0.16650390625 0.985595703125 0.066650390625 0 0 0 1</matrix>
                  </node>
                </node>
              </node>
            </node>
            <node id="joint24" sid="joint24" name="spd_Hip_R" type="JOINT">
              <matrix sid="transform">-0.97998046875 0.109130859375 -0.166748046875 -0.275390625 -0.107666015625 -0.994140625 -0.017333984375 0.102783203125 -0.167724609375 0.0009765625 0.98583984375 -0.623291015625 0 0 0 1</matrix>
              <node id="joint25" sid="joint25" name="spd_Knee_R" type="JOINT">
                <matrix sid="transform">0.99462890625 -0.103271484375 0 1.92626953125 0.103271484375 0.99462890625 0 0 0 0 1 0 0 0 0 1</matrix>
                <node id="joint30" sid="joint30" name="spd_Ankle_R" type="JOINT">
                  <matrix sid="transform">0.96337890625 0.2080078125 -0.169189453125 2.289794921875 -0.209716796875 0.977783203125 0.0068359375 0 0.166748046875 0.02880859375 0.985595703125 0 0 0 0 1</matrix>
                  <node id="joint31" sid="joint31" name="spd_MidToe1R" type="JOINT">
                    <matrix sid="transform">0.21533203125 0.961669921875 0.16943359375 0.62646484375 -0.97607421875 0.2177734375 0.00537109375 -0.83447265625 -0.03173828125 -0.16650390625 0.985595703125 -0.066650390625 0 0 0 1</matrix>
                  </node>
                </node>
              </node>
            </node>
          </node>
        </node>
      </node>
      <node id="node" name="spa" type="NODE">
        <instance_controller url="#controller">
          <skeleton>#joint0</skeleton>
          <bind_material>
            <technique_common>
              <instance_material symbol="material0" target="#material0">
                <bind_vertex_input semantic="tc" input_semantic="TEXCOORD"/>
              </instance_material>
              <instance_material symbol="material1" target="#material1">
                <bind_vertex_input semantic="tc" input_semantic="TEXCOORD"/>
              </instance_material>
              <instance_material symbol="material2" target="#material2">
                <bind_vertex_input semantic="tc" input_semantic="TEXCOORD"/>
              </instance_material>
            </technique_common>
          </bind_material>
        </instance_controller>
      </node>
    </visual_scene>
  </library_visual_scenes>
  <scene>
    <instance_visual_scene url="#scene0"/>
  </scene>
</COLLADA>
